{"glyphs":{"0":{"ha":625,"x_min":47,"x_max":533,"o":"m 333 67 q 403 153 383 81 q 428 475 428 242 q 403 797 428 707 q 333 882 383 869 q 290 886 317 886 q 248 882 263 886 q 178 797 197 869 q 153 475 153 707 q 178 153 153 242 q 248 67 197 81 q 290 63 263 63 q 333 67 317 63 m 346 954 q 490 835 448 941 q 533 475 533 727 q 490 115 533 222 q 346 -5 448 9 q 290 -7 328 -7 q 235 -5 252 -7 q 90 115 132 9 q 47 475 47 222 q 90 835 47 727 q 235 954 132 941 q 290 956 253 956 q 346 954 329 956 z "},"1":{"ha":358,"x_min":47,"x_max":256,"o":"m 256 956 l 256 0 l 151 0 l 151 845 l 47 845 l 47 905 q 117 926 78 907 q 159 949 146 940 l 256 956 z "},"2":{"ha":569,"x_min":47,"x_max":477,"o":"m 272 956 q 443 900 394 956 q 477 783 477 859 q 445 514 477 637 q 387 447 435 479 q 288 391 368 433 q 194 331 223 357 q 153 247 153 292 l 153 83 l 477 83 l 477 0 l 47 0 l 47 264 q 175 429 47 353 q 226 457 192 439 q 275 484 260 475 q 346 542 328 515 q 376 762 376 585 q 363 847 376 826 q 268 883 342 883 q 176 840 194 883 q 167 742 167 821 q 169 628 167 687 l 66 628 q 60 760 60 686 q 93 890 60 846 q 272 956 142 956 z "},"3":{"ha":551,"x_min":47,"x_max":463,"o":"m 357 555 q 463 196 463 463 q 429 68 463 114 q 260 0 381 0 q 81 60 130 0 q 47 184 47 100 q 52 269 47 257 l 155 269 l 155 203 q 163 110 155 128 q 256 73 182 73 q 350 121 329 73 q 361 217 361 144 q 348 354 361 282 q 286 494 328 457 q 227 524 260 518 q 196 526 215 526 q 129 522 169 526 l 129 603 q 269 648 237 630 q 324 746 321 681 q 325 768 325 758 q 317 842 325 817 q 256 893 302 890 q 237 894 246 894 q 159 858 178 894 q 145 760 145 833 l 145 742 l 47 760 l 47 779 q 79 903 47 862 q 241 963 123 963 q 385 904 338 963 q 422 785 422 857 q 396 665 422 710 q 277 585 362 607 q 357 555 329 581 z "},"4":{"ha":669,"x_min":47,"x_max":567,"o":"m 486 309 l 567 309 l 567 237 l 486 231 l 486 0 l 381 0 l 381 231 l 59 231 l 47 292 l 381 949 l 486 956 l 486 309 m 159 309 l 381 309 l 381 797 l 159 309 z "},"5":{"ha":575,"x_min":47,"x_max":484,"o":"m 437 584 q 477 384 465 534 q 484 240 484 306 q 481 168 484 202 q 445 48 477 86 q 275 -7 397 -7 q 47 191 47 -7 l 49 257 l 155 257 l 155 209 q 171 110 155 138 q 271 66 195 66 q 369 104 346 66 q 383 189 383 126 q 355 530 383 481 q 243 576 330 576 q 125 562 194 576 l 75 571 l 75 956 l 448 956 l 448 880 l 181 880 l 181 640 q 273 648 225 648 l 288 648 q 437 584 401 644 z "},"6":{"ha":603,"x_min":34,"x_max":511,"o":"m 235 501 q 142 336 142 477 l 142 323 q 170 125 149 185 q 227 60 189 71 q 270 56 243 56 q 313 60 297 56 q 408 286 408 86 q 381 445 408 389 q 321 501 359 491 q 278 505 305 505 q 235 501 252 505 m 214 -5 q 73 115 113 9 q 34 475 34 220 q 110 843 34 718 q 298 956 179 956 q 413 916 367 956 q 463 798 463 872 l 375 798 q 355 859 372 835 q 313 888 339 884 q 294 890 303 890 q 262 886 278 890 q 139 480 139 852 q 269 575 175 564 q 300 577 285 577 q 450 505 393 577 q 511 286 511 427 q 326 -5 511 20 q 270 -7 307 -7 q 214 -5 231 -7 z "},"7":{"ha":547,"x_min":47,"x_max":456,"o":"m 446 886 q 286 481 317 691 l 378 477 l 378 414 l 279 423 q 266 0 266 262 l 164 0 q 184 430 169 290 l 91 433 l 91 496 l 193 488 q 365 893 237 724 l 47 878 l 47 956 l 456 956 l 446 886 z "},"8":{"ha":606,"x_min":47,"x_max":515,"o":"m 281 465 q 188 372 224 431 q 151 261 154 317 q 150 231 150 245 q 238 64 150 88 q 281 60 254 60 q 323 64 308 60 q 412 231 412 88 q 411 261 412 245 q 374 372 408 317 q 281 465 338 431 m 176 774 q 218 636 176 699 q 288 568 242 602 q 342 636 309 587 q 385 774 385 699 q 370 854 385 829 q 281 892 347 892 q 191 854 214 892 q 176 774 176 829 m 355 524 q 467 404 425 477 q 513 262 509 334 q 515 229 515 245 q 467 66 515 126 q 336 -5 421 7 q 281 -7 318 -7 q 225 -5 243 -7 q 95 58 138 7 q 47 218 47 113 q 48 245 47 231 q 212 518 56 406 q 120 613 146 572 q 75 778 75 682 q 115 897 75 852 q 281 956 166 956 q 446 897 395 956 q 485 778 485 852 q 355 524 485 628 z "},"9":{"ha":616,"x_min":47,"x_max":525,"o":"m 323 460 q 416 625 416 484 l 416 637 q 389 831 410 774 q 332 889 371 879 q 289 893 316 893 q 246 889 262 893 q 151 664 151 863 q 238 460 151 483 q 281 456 254 456 q 323 460 307 456 m 345 954 q 486 835 446 941 q 525 475 525 729 q 471 115 525 229 q 316 -5 422 9 q 260 -7 298 -7 q 139 34 190 -7 q 83 151 83 79 l 184 151 q 208 90 187 116 q 252 61 228 64 q 273 60 263 60 q 303 64 289 60 q 420 465 420 96 q 290 386 380 392 q 269 385 279 385 q 109 453 167 385 q 47 664 47 526 q 233 954 47 929 q 289 956 252 956 q 345 954 328 956 z "}," ":{"ha":345,"x_min":0,"x_max":0,"o":""}," ":{"ha":345,"x_min":0,"x_max":0,"o":""},"!":{"ha":224,"x_min":52,"x_max":172,"o":"m 79 179 q 58 640 58 446 q 63 812 58 735 q 85 947 70 920 q 113 956 90 956 q 139 947 135 956 q 161 812 154 916 q 166 637 166 734 q 144 179 166 444 l 79 179 m 112 119 q 155 98 136 119 q 172 53 172 79 q 155 11 172 28 q 112 -7 137 -7 q 70 11 87 -7 q 52 53 52 28 q 70 98 52 79 q 112 119 87 119 z "},"\"":{"ha":449,"x_min":34,"x_max":401,"o":"m 95 810 q 51 830 68 810 q 34 880 34 849 q 54 929 34 909 q 104 949 75 949 q 155 932 133 949 q 180 886 178 913 q 181 872 181 880 q 168 805 181 840 q 129 734 154 767 q 83 689 106 704 q 61 680 70 680 q 51 684 55 680 q 50 687 50 685 q 60 709 50 692 q 73 729 64 715 q 87 751 83 745 q 108 791 104 779 q 109 799 109 795 q 98 810 109 810 l 95 810 m 315 810 q 271 830 288 810 q 254 880 254 849 q 275 929 254 909 q 324 949 295 949 q 376 932 353 949 q 401 886 398 913 q 401 872 401 880 q 389 805 401 840 q 349 734 374 767 q 304 689 327 704 q 281 680 290 680 q 271 684 275 680 q 271 687 271 685 q 280 709 271 692 q 294 729 284 715 q 308 751 304 745 q 328 791 325 779 q 329 799 329 795 q 317 810 329 810 l 315 810 z "},"#":{"ha":829,"x_min":47,"x_max":727,"o":"m 599 814 l 548 570 l 727 570 l 709 517 l 537 517 l 492 302 l 688 302 l 671 249 l 481 249 l 429 0 l 363 0 l 415 249 l 268 249 l 216 0 l 150 0 l 202 249 l 47 249 l 66 302 l 214 302 l 258 517 l 81 517 l 99 570 l 269 570 l 320 814 l 387 814 l 335 570 l 482 570 l 533 814 l 599 814 m 279 302 l 426 302 l 471 517 l 324 517 l 279 302 z "},"$":{"ha":688,"x_min":0,"x_max":494,"o":"m 494 247 q 279 22 494 37 l 279 -95 l 198 -95 l 198 22 q 36 114 87 34 q 0 241 0 170 l 105 241 q 127 147 105 186 q 221 90 157 93 q 249 89 235 89 q 345 109 315 89 q 395 247 395 142 q 320 393 395 335 q 250 437 295 412 q 178 477 185 472 q 56 581 91 530 q 20 707 22 631 l 20 721 q 198 928 20 913 l 198 1044 l 279 1044 l 279 926 q 392 871 347 916 q 439 750 439 825 l 334 750 q 252 859 334 853 q 229 860 239 860 q 154 842 177 860 q 118 732 118 814 q 119 707 118 720 q 208 575 124 623 q 394 464 365 485 q 494 247 494 390 z "},"%":{"ha":731,"x_min":47,"x_max":684,"o":"m 644 864 l 139 0 l 65 0 l 592 902 l 644 864 m 515 35 q 589 68 557 35 q 624 167 624 106 q 589 263 624 228 q 513 294 557 294 q 439 264 470 294 q 404 168 404 229 q 439 68 404 106 q 515 35 471 35 m 514 343 q 637 293 590 343 q 684 168 684 244 q 637 43 684 92 q 514 -7 590 -7 q 391 43 438 -7 q 345 168 345 92 q 391 293 345 244 q 514 343 438 343 m 216 861 q 142 829 173 861 q 107 734 107 794 q 142 635 107 672 q 218 601 175 601 q 292 634 260 601 q 328 733 327 672 q 292 829 328 794 q 216 861 260 861 m 217 559 q 94 609 141 559 q 47 734 47 658 q 94 859 47 810 q 217 909 141 909 q 340 859 293 909 q 387 734 387 810 q 340 609 387 658 q 217 559 293 559 z "},"&":{"ha":815,"x_min":69,"x_max":768,"o":"m 323 71 l 336 71 q 532 146 452 71 q 281 403 396 260 q 209 307 235 363 q 186 208 186 256 l 186 200 q 221 111 189 145 q 323 71 257 73 m 307 886 l 304 886 q 250 863 274 886 q 213 793 222 838 q 209 753 209 773 q 299 523 209 652 q 404 760 404 647 q 385 846 404 817 q 307 886 362 882 m 768 347 q 730 350 758 347 q 688 352 702 352 q 675 254 684 287 q 628 168 662 211 q 751 83 693 113 l 751 1 q 578 110 662 45 q 324 -6 469 2 q 300 -7 312 -7 q 121 58 186 -7 q 69 184 69 109 q 78 248 69 214 q 233 464 104 347 q 143 615 176 530 q 114 759 114 691 q 115 776 114 768 q 166 904 119 857 q 318 956 219 956 q 458 916 408 956 q 515 778 515 870 l 515 766 q 346 456 508 586 q 581 203 467 306 q 626 352 618 254 q 581 350 612 352 q 538 347 551 347 l 538 399 l 768 399 l 768 347 z "},"'":{"ha":218,"x_min":47,"x_max":195,"o":"m 109 782 q 64 802 81 782 q 47 852 47 822 q 68 901 47 881 q 117 922 88 922 q 169 905 146 922 q 194 859 191 886 q 195 844 195 852 q 182 777 195 812 q 142 706 168 739 q 97 661 120 676 q 75 652 83 652 q 64 656 68 652 q 64 659 64 657 q 73 681 64 664 q 87 701 77 688 q 101 723 97 717 q 121 764 118 751 q 122 771 122 768 q 111 782 122 782 l 109 782 z "},"(":{"ha":344,"x_min":47,"x_max":228,"o":"m 228 1007 q 146 797 161 945 q 139 387 139 725 q 146 -24 139 48 q 228 -234 161 -172 l 220 -258 q 83 -67 122 -217 q 47 387 47 74 q 83 840 47 699 q 220 1031 122 990 l 228 1007 z "},")":{"ha":329,"x_min":47,"x_max":227,"o":"m 56 1031 q 191 840 153 990 q 227 387 227 699 q 191 -67 227 74 q 56 -258 153 -217 l 47 -234 q 129 -24 115 -172 q 136 387 136 48 q 129 797 136 725 q 47 1007 115 945 l 56 1031 z "},"*":{"ha":583,"x_min":47,"x_max":534,"o":"m 319 670 q 427 622 373 650 q 534 522 534 565 l 534 520 q 526 499 534 507 q 503 490 517 490 q 402 547 470 491 q 306 647 340 599 q 335 460 335 526 q 319 393 335 411 q 291 383 309 383 q 264 393 274 383 q 248 460 248 410 q 251 508 248 481 q 277 647 258 569 q 180 547 241 599 q 79 490 112 491 q 56 499 65 490 q 47 522 47 508 q 155 622 48 565 q 262 670 209 650 q 155 718 209 690 q 47 817 48 774 q 56 840 47 831 q 79 849 65 849 q 180 793 112 848 q 277 692 241 741 q 254 831 259 763 q 252 870 252 852 q 269 946 252 928 q 291 957 280 957 q 313 946 302 957 q 330 872 330 928 q 328 831 330 854 q 306 692 323 763 q 402 793 340 741 q 503 849 470 848 q 526 840 517 849 q 534 819 534 832 l 534 817 q 427 718 534 774 q 319 670 373 690 z "},"+":{"ha":726,"x_min":47,"x_max":624,"o":"m 385 766 l 385 521 l 624 521 l 624 422 l 385 422 l 385 176 l 286 176 l 286 422 l 47 422 l 47 521 l 286 521 l 286 766 l 385 766 z "},",":{"ha":298,"x_min":47,"x_max":196,"o":"m 81 -65 q 82 -54 82 -60 q 62 22 82 -16 q 47 72 52 43 q 68 121 47 101 q 117 142 88 142 q 169 127 146 142 q 194 79 191 109 q 196 49 196 63 q 188 -10 196 18 q 146 -97 168 -64 q 100 -142 123 -127 q 75 -151 87 -151 q 64 -146 68 -151 q 59 -134 60 -142 q 58 -132 58 -133 q 66 -112 58 -124 q 81 -65 74 -98 z "},"-":{"ha":590,"x_min":47,"x_max":488,"o":"m 47 429 l 488 429 l 488 327 l 47 327 l 47 429 z "},"­":{"ha":590,"x_min":47,"x_max":488,"o":"m 47 429 l 488 429 l 488 327 l 47 327 l 47 429 z "},".":{"ha":317,"x_min":47,"x_max":216,"o":"m 132 -7 q 72 22 98 -7 q 47 85 47 50 q 72 145 47 120 q 132 170 97 170 q 191 145 166 170 q 216 85 216 120 q 191 22 216 50 q 132 -7 165 -7 z "},"/":{"ha":650,"x_min":17,"x_max":583,"o":"m 583 949 l 108 -120 l 17 -120 l 492 949 l 583 949 z "},":":{"ha":317,"x_min":47,"x_max":216,"o":"m 132 -7 q 72 22 98 -7 q 47 85 47 50 q 72 145 47 120 q 132 170 97 170 q 191 145 166 170 q 216 85 216 120 q 191 22 216 50 q 132 -7 165 -7 m 132 502 q 72 530 98 502 q 47 594 47 558 q 72 654 47 629 q 132 678 97 678 q 191 654 166 678 q 216 594 216 629 q 191 530 216 558 q 132 502 165 502 z "},";":{"ha":317,"x_min":47,"x_max":216,"o":"m 81 -65 q 82 -54 82 -60 q 62 22 82 -16 q 47 72 52 43 q 68 121 47 101 q 117 142 88 142 q 169 127 146 142 q 194 79 191 109 q 196 49 196 63 q 188 -10 196 18 q 146 -97 168 -64 q 100 -142 123 -127 q 75 -151 87 -151 q 64 -146 68 -151 q 59 -134 60 -142 q 58 -132 58 -133 q 66 -112 58 -124 q 81 -65 74 -98 m 132 502 q 72 530 98 502 q 47 594 47 558 q 72 654 47 629 q 132 678 97 678 q 191 654 166 678 q 216 594 216 629 q 191 530 216 558 q 132 502 165 502 z "},";":{"ha":317,"x_min":47,"x_max":216,"o":"m 81 -65 q 82 -54 82 -60 q 62 22 82 -16 q 47 72 52 43 q 68 121 47 101 q 117 142 88 142 q 169 127 146 142 q 194 79 191 109 q 196 49 196 63 q 188 -10 196 18 q 146 -97 168 -64 q 100 -142 123 -127 q 75 -151 87 -151 q 64 -146 68 -151 q 59 -134 60 -142 q 58 -132 58 -133 q 66 -112 58 -124 q 81 -65 74 -98 m 132 502 q 72 530 98 502 q 47 594 47 558 q 72 654 47 629 q 132 678 97 678 q 191 654 166 678 q 216 594 216 629 q 191 530 216 558 q 132 502 165 502 z "},"<":{"ha":682,"x_min":47,"x_max":581,"o":"m 581 770 l 161 484 l 581 197 l 532 95 l 47 450 l 47 517 l 532 871 l 581 770 z "},"=":{"ha":685,"x_min":47,"x_max":637,"o":"m 47 613 l 637 613 l 637 513 l 47 513 l 47 613 m 47 414 l 637 414 l 637 315 l 47 315 l 47 414 z "},">":{"ha":682,"x_min":47,"x_max":581,"o":"m 96 871 l 581 517 l 581 450 l 96 95 l 47 197 l 467 484 l 47 770 l 96 871 z "},"?":{"ha":524,"x_min":56,"x_max":472,"o":"m 201 119 q 244 98 226 119 q 262 53 262 79 q 244 11 262 28 q 201 -7 227 -7 q 159 11 177 -7 q 142 53 142 28 q 159 98 142 79 q 201 119 177 119 m 229 952 q 281 956 256 956 q 370 939 331 956 q 451 866 425 916 q 472 773 472 825 q 471 753 472 764 q 433 624 467 689 q 322 444 410 580 q 237 298 247 327 q 235 280 235 290 q 247 234 235 260 q 255 210 254 218 q 243 189 255 199 q 199 176 227 176 q 159 182 182 176 q 144 256 144 219 q 159 328 144 292 q 313 630 205 433 q 363 790 363 724 q 360 821 363 806 q 264 890 345 890 q 223 886 245 890 q 158 811 158 876 l 158 807 q 160 781 159 797 q 163 755 162 760 q 163 746 163 750 q 155 718 163 726 q 106 699 138 699 q 94 700 100 699 q 58 708 74 702 q 56 743 56 726 q 83 858 56 804 q 229 952 125 938 z "},"@":{"ha":1042,"x_min":47,"x_max":941,"o":"m 594 637 q 514 652 551 652 q 454 641 482 652 q 367 496 379 609 q 364 445 364 468 q 468 306 364 306 q 557 345 523 306 l 594 637 m 508 698 q 530 699 519 699 q 689 663 606 699 l 644 320 q 812 418 753 325 q 855 570 855 486 q 854 603 855 587 q 762 798 844 718 q 536 886 672 886 q 252 765 368 886 q 136 475 136 644 q 252 182 136 304 q 536 59 369 59 q 801 132 680 59 l 840 77 q 536 -14 715 -14 q 191 130 334 -14 q 47 475 47 273 q 191 820 47 677 q 536 963 334 963 q 792 880 685 963 q 924 684 888 804 q 941 575 941 629 q 921 461 941 517 q 772 293 881 348 q 592 256 702 258 l 562 292 q 456 254 511 258 q 434 254 445 254 q 321 292 361 254 q 277 419 277 336 q 280 466 277 441 q 357 644 294 587 q 508 698 412 691 z "},"A":{"ha":712,"x_min":34,"x_max":651,"o":"m 393 949 l 651 0 l 539 0 l 480 245 l 205 245 l 146 0 l 34 0 l 298 949 l 393 949 m 222 317 l 463 317 l 342 822 l 222 317 z "},"B":{"ha":681,"x_min":34,"x_max":576,"o":"m 428 110 q 468 252 468 143 q 467 275 468 262 q 402 412 461 376 q 257 449 353 442 q 139 452 224 452 l 139 76 q 273 71 208 71 q 313 71 294 71 q 428 110 386 76 m 139 886 l 139 517 q 269 518 237 517 q 414 570 363 523 q 454 688 450 604 l 454 703 q 421 840 454 800 q 300 886 385 886 l 139 886 m 337 484 q 494 437 431 484 q 576 257 576 376 q 519 67 576 123 q 314 0 453 0 l 34 0 l 34 949 l 313 949 q 502 889 442 949 q 559 709 559 832 l 559 694 q 467 514 554 567 q 337 484 419 486 z "},"C":{"ha":745,"x_min":47,"x_max":643,"o":"m 643 98 q 317 0 511 0 q 126 96 187 0 q 47 481 47 209 q 126 850 47 737 q 318 960 180 945 q 366 963 342 963 q 518 942 444 963 q 618 898 592 918 l 570 844 q 396 886 486 886 q 370 885 383 886 q 323 882 347 885 q 215 800 255 875 q 161 488 161 699 q 214 160 161 261 q 323 84 255 84 q 592 155 469 84 l 643 98 z "},"D":{"ha":797,"x_min":47,"x_max":695,"o":"m 420 78 q 533 163 499 99 q 580 455 580 251 l 580 477 q 520 793 578 699 q 397 875 479 861 q 300 878 378 878 l 153 878 l 153 71 l 307 71 q 420 78 395 71 m 410 947 q 623 836 557 933 q 695 484 695 729 q 630 123 695 235 q 424 3 568 16 q 307 0 395 0 l 47 0 l 47 949 l 321 949 q 410 947 385 949 z "},"E":{"ha":652,"x_min":47,"x_max":551,"o":"m 547 949 l 547 885 l 153 885 l 153 517 l 520 517 l 520 453 l 153 453 l 153 64 l 551 64 l 551 0 l 47 0 l 47 949 l 547 949 z "},"F":{"ha":635,"x_min":47,"x_max":554,"o":"m 554 949 l 554 885 l 153 885 l 153 558 l 513 558 l 513 494 l 153 494 l 153 1 l 47 0 l 47 949 l 554 949 z "},"G":{"ha":739,"x_min":47,"x_max":637,"o":"m 637 425 l 637 121 q 310 -7 530 -7 q 119 89 180 -7 q 47 475 47 202 q 119 843 47 730 q 311 954 180 939 q 360 956 335 956 q 522 928 438 956 q 624 878 602 899 l 576 823 q 370 878 475 878 q 323 876 347 878 q 214 793 255 868 q 161 481 161 692 q 323 77 161 90 q 356 76 340 76 q 462 90 412 76 q 532 121 511 104 l 532 354 l 366 364 l 366 425 l 637 425 z "},"H":{"ha":765,"x_min":47,"x_max":643,"o":"m 643 949 l 643 0 l 538 0 l 538 441 l 153 441 l 153 0 l 47 0 l 47 949 l 153 949 l 153 512 l 538 512 l 538 949 l 643 949 z "},"I":{"ha":264,"x_min":47,"x_max":153,"o":"m 47 949 l 153 949 l 153 0 l 47 0 l 47 949 z "},"J":{"ha":378,"x_min":47,"x_max":276,"o":"m 174 949 l 276 949 l 276 262 q 259 68 276 115 q 139 -7 232 -7 q 47 24 83 -7 l 75 104 q 113 87 92 93 q 132 85 123 85 q 155 94 146 85 q 172 153 169 109 q 174 305 174 179 l 174 949 z "},"K":{"ha":701,"x_min":47,"x_max":616,"o":"m 500 463 q 581 310 557 412 q 604 56 599 227 q 616 0 604 26 l 511 0 q 496 59 498 20 q 483 269 491 214 q 433 398 470 359 q 224 454 382 454 l 153 454 l 153 0 l 47 0 l 47 949 l 153 949 l 153 520 q 210 522 168 522 l 462 948 l 591 948 l 311 522 q 500 463 440 517 z "},"L":{"ha":571,"x_min":47,"x_max":469,"o":"m 153 949 l 153 64 l 469 64 l 469 0 l 47 0 l 47 949 l 153 949 z "},"M":{"ha":913,"x_min":47,"x_max":791,"o":"m 791 949 l 791 0 l 686 0 l 686 715 l 689 811 q 665 689 688 789 l 436 0 l 402 0 l 174 689 q 149 811 151 789 l 153 715 l 153 0 l 47 0 l 47 949 l 181 940 q 387 307 335 471 q 418 172 418 198 l 420 172 q 451 307 420 198 q 657 940 503 471 l 791 949 z "},"N":{"ha":761,"x_min":47,"x_max":639,"o":"m 150 935 q 488 291 411 463 q 538 144 519 235 q 534 229 534 209 l 534 949 l 639 949 l 639 0 l 518 0 q 201 623 280 460 q 148 764 166 678 q 153 678 153 698 l 153 0 l 47 0 l 47 949 l 150 935 z "},"O":{"ha":814,"x_min":47,"x_max":722,"o":"m 456 69 q 565 155 532 84 q 607 452 607 243 l 607 477 q 559 800 605 707 q 450 882 526 869 q 393 885 430 885 l 381 885 q 313 880 336 884 q 205 795 237 865 q 163 498 163 707 l 163 472 q 210 150 165 243 q 320 68 244 81 q 376 64 340 64 l 389 64 q 456 69 434 65 m 463 954 q 663 840 605 940 q 722 484 722 735 q 663 120 722 231 q 463 -4 604 9 q 385 -7 437 -6 l 369 -7 q 307 -4 332 -7 q 107 110 165 9 q 47 465 47 214 q 107 829 47 718 q 307 954 166 940 q 385 956 332 956 l 400 956 q 463 954 438 956 z "},"P":{"ha":616,"x_min":47,"x_max":534,"o":"m 418 663 q 382 835 418 794 q 245 886 337 886 q 153 884 185 886 l 153 454 q 236 450 183 450 q 374 491 323 450 q 411 562 401 514 q 418 663 418 594 m 534 692 q 534 666 534 679 q 478 463 534 529 q 234 382 410 382 q 153 385 192 382 l 153 0 l 47 0 l 47 949 l 275 949 q 464 890 404 949 q 534 692 527 829 z "},"Q":{"ha":814,"x_min":47,"x_max":722,"o":"m 511 4 q 463 -4 488 -1 q 385 -7 437 -6 l 369 -7 q 307 -4 332 -7 q 107 110 165 9 q 47 465 47 214 q 107 829 47 718 q 307 954 166 940 q 385 956 332 956 l 400 956 q 463 954 438 956 q 663 840 605 940 q 722 484 722 735 q 663 120 722 231 q 611 54 642 81 q 705 -41 690 2 q 709 -55 707 -47 l 709 -56 q 694 -89 709 -73 q 667 -109 680 -104 q 651 -113 659 -112 l 649 -113 q 582 -78 607 -113 q 511 4 556 -43 m 451 68 q 431 91 437 85 l 463 130 q 524 100 492 116 q 565 155 549 121 q 607 452 607 243 l 607 477 q 559 800 605 707 q 450 882 526 869 q 393 885 430 885 l 381 885 q 313 880 336 884 q 205 795 237 865 q 163 498 163 707 l 163 472 q 210 150 165 243 q 320 68 244 81 q 376 64 340 64 l 389 64 q 451 68 429 65 z "},"R":{"ha":675,"x_min":47,"x_max":583,"o":"m 153 490 l 278 490 q 426 539 379 490 q 464 682 464 578 q 419 837 464 793 q 304 884 372 884 l 153 884 l 153 490 m 315 949 q 508 875 431 949 q 572 680 572 814 q 518 511 572 561 q 380 459 478 474 q 479 425 450 446 q 547 299 520 395 q 571 56 566 230 q 583 0 572 26 l 487 0 q 473 59 474 20 q 409 370 465 305 q 266 421 365 421 l 153 421 l 153 0 l 47 0 l 47 949 l 315 949 z "},"S":{"ha":635,"x_min":47,"x_max":547,"o":"m 448 456 q 547 245 543 384 q 473 55 547 122 q 287 -7 404 -7 q 265 -6 276 -7 q 87 81 144 -1 q 47 214 47 139 l 159 214 q 181 127 159 166 q 269 68 211 72 q 285 68 277 68 q 381 100 342 68 q 434 245 434 144 q 394 362 434 318 q 232 481 353 407 q 102 596 146 533 q 62 705 68 635 q 61 734 61 720 q 125 898 61 839 q 294 956 188 956 l 306 956 q 447 902 395 954 q 500 762 500 850 l 395 762 q 300 881 389 868 q 287 882 294 882 q 195 850 229 882 q 165 757 165 816 q 168 713 165 737 q 279 565 184 631 q 368 510 307 546 q 448 456 422 478 z "},"T":{"ha":821,"x_min":47,"x_max":739,"o":"m 739 949 l 739 885 l 446 885 l 446 0 l 341 0 l 341 885 l 47 885 l 47 949 l 739 949 z "},"U":{"ha":739,"x_min":47,"x_max":627,"o":"m 627 949 l 627 317 q 594 100 627 167 q 414 -4 549 8 q 353 -7 391 -7 l 321 -7 q 260 -4 283 -7 q 80 100 125 8 q 47 317 47 167 l 47 949 l 153 949 l 153 317 q 177 136 153 188 q 273 75 201 85 q 326 71 291 71 l 349 71 q 401 75 383 71 q 497 136 473 85 q 522 317 522 188 l 522 949 l 627 949 z "},"V":{"ha":737,"x_min":34,"x_max":656,"o":"m 656 949 l 418 0 l 272 0 l 34 949 l 146 949 l 341 88 l 349 88 l 544 949 l 656 949 z "},"W":{"ha":1001,"x_min":34,"x_max":920,"o":"m 920 949 l 759 0 l 616 0 l 475 822 l 471 822 l 355 0 l 205 0 l 34 949 l 145 949 l 281 85 l 285 85 l 418 949 l 536 949 l 679 85 l 682 85 l 808 949 l 920 949 z "},"X":{"ha":742,"x_min":47,"x_max":661,"o":"m 659 949 l 414 481 l 661 0 l 535 0 l 354 422 l 173 0 l 47 0 l 294 481 l 50 949 l 175 949 l 354 543 l 533 949 l 659 949 z "},"Y":{"ha":764,"x_min":41,"x_max":682,"o":"m 682 949 l 414 387 l 414 0 l 309 0 l 309 387 l 41 949 l 154 949 l 357 489 l 366 489 l 569 949 l 682 949 z "},"Z":{"ha":726,"x_min":47,"x_max":624,"o":"m 614 949 l 624 896 l 186 71 l 624 71 l 624 0 l 58 0 l 47 68 l 493 879 l 107 879 l 107 949 l 614 949 z "},"[":{"ha":384,"x_min":47,"x_max":282,"o":"m 47 1031 l 282 1031 l 275 972 q 144 979 183 978 l 144 -205 q 275 -195 183 -205 l 282 -258 l 47 -258 l 47 1031 z "},"\\":{"ha":647,"x_min":47,"x_max":613,"o":"m 138 949 l 613 -120 l 522 -120 l 47 949 l 138 949 z "},"]":{"ha":384,"x_min":47,"x_max":282,"o":"m 282 -258 l 47 -258 l 54 -195 q 185 -205 146 -205 l 185 979 q 54 972 146 978 l 47 1031 l 282 1031 l 282 -258 z "},"^":{"ha":697,"x_min":34,"x_max":606,"o":"m 602 613 q 606 604 606 608 q 560 574 606 587 q 500 563 532 567 l 320 921 l 137 563 q 79 574 107 567 q 34 604 34 587 q 35 613 34 609 q 303 1051 144 802 l 336 1051 q 602 613 495 802 z "},"_":{"ha":690,"x_min":47,"x_max":642,"o":"m 47 -54 l 642 -54 l 642 -109 l 47 -109 l 47 -54 z "},"`":{"ha":288,"x_min":34,"x_max":254,"o":"m 201 745 q 111 846 155 790 q 34 994 34 941 q 35 1008 34 1001 q 76 1034 41 1025 q 112 1038 96 1038 q 128 1037 121 1038 q 201 931 164 1025 q 229 848 213 901 q 254 774 248 791 l 201 745 z "},"a":{"ha":618,"x_min":34,"x_max":499,"o":"m 390 328 q 219 321 264 328 q 150 288 166 313 q 135 224 138 269 q 134 196 134 210 q 142 122 134 155 q 209 63 156 63 q 267 76 234 63 q 389 132 283 83 l 390 328 m 492 107 q 499 12 492 61 l 410 0 q 395 50 401 12 q 394 73 394 58 q 249 9 301 31 q 165 -7 205 -7 q 130 -3 146 -7 q 52 58 70 8 q 34 224 34 108 q 48 307 34 271 q 123 378 71 363 q 390 396 191 396 l 390 520 q 384 584 390 570 q 358 606 378 599 q 308 611 340 611 q 278 610 294 611 q 81 580 201 607 l 57 649 q 337 685 217 685 q 471 638 437 685 q 492 533 492 609 l 492 107 z "},"b":{"ha":661,"x_min":34,"x_max":570,"o":"m 342 68 q 430 115 402 68 q 468 338 468 177 q 426 559 468 499 q 328 608 397 601 q 293 609 310 609 q 143 573 212 609 l 143 176 q 342 68 250 68 m 360 683 q 519 598 472 673 q 570 338 570 519 q 513 74 570 159 q 349 -7 458 -7 q 197 35 267 -7 q 142 75 161 55 q 123 0 139 39 l 34 6 q 41 102 41 58 l 41 1010 l 143 1010 l 143 645 q 319 685 222 685 q 360 683 339 685 z "},"c":{"ha":626,"x_min":34,"x_max":524,"o":"m 524 76 q 254 -7 415 -7 q 85 75 136 -7 q 34 339 34 155 q 85 600 34 522 q 250 684 136 677 q 270 685 260 685 l 284 685 q 417 671 362 685 q 500 635 475 655 l 456 580 q 287 612 389 612 l 267 612 q 174 568 202 612 q 136 346 136 509 q 174 120 136 182 q 267 72 203 72 q 480 125 387 72 l 524 76 z "},"d":{"ha":689,"x_min":34,"x_max":570,"o":"m 261 610 q 174 562 201 606 q 136 340 136 500 q 174 117 136 177 q 267 68 202 71 l 277 68 q 460 151 378 68 l 460 560 q 376 594 437 577 q 275 611 318 611 q 261 610 268 611 m 243 -7 q 79 75 127 -7 q 34 340 34 153 q 91 601 34 517 q 254 684 144 679 q 281 685 268 685 q 460 651 378 685 l 460 1010 l 562 1010 l 562 102 q 570 6 562 58 l 480 0 q 466 56 469 18 q 465 77 465 65 q 397 28 443 52 q 243 -7 328 -7 z "},"e":{"ha":614,"x_min":34,"x_max":515,"o":"m 430 372 q 402 542 427 489 q 287 612 369 612 q 188 570 222 612 q 136 372 141 513 l 430 372 m 136 304 q 179 116 136 163 q 274 65 208 73 q 302 64 288 64 q 389 73 340 64 q 477 101 446 85 l 513 47 q 299 -7 410 -7 q 260 -5 279 -7 q 91 85 142 5 q 34 332 34 158 q 113 606 34 511 q 292 685 177 685 l 304 685 q 482 564 431 680 q 515 369 515 488 q 513 304 515 338 l 136 304 z "},"f":{"ha":537,"x_min":24,"x_max":456,"o":"m 216 665 l 357 665 l 357 597 l 216 597 l 216 -7 l 115 -7 l 115 597 l 24 597 l 24 647 l 115 665 q 133 901 115 850 q 292 1010 171 1010 q 417 958 377 1010 q 456 806 456 908 l 360 806 q 343 913 360 882 q 289 944 326 944 l 281 944 q 216 835 216 939 l 216 665 z "},"g":{"ha":717,"x_min":34,"x_max":635,"o":"m 308 -254 q 458 -214 401 -254 q 509 -126 509 -179 q 508 -115 509 -121 q 383 -22 502 -47 q 280 -6 365 -19 q 187 14 218 3 q 141 -37 159 -5 q 122 -129 123 -68 l 122 -136 q 164 -218 125 -188 q 308 -254 212 -254 m 165 456 q 202 321 165 366 q 296 286 237 286 q 391 316 359 286 q 426 450 426 355 q 389 585 426 541 q 296 621 354 621 q 199 586 233 621 q 165 456 165 551 m 184 106 q 193 101 184 106 q 269 90 201 95 q 401 73 355 83 q 592 -109 588 33 q 593 -127 593 -118 q 526 -264 593 -210 q 309 -326 448 -326 q 114 -277 186 -326 q 38 -168 52 -236 q 34 -130 34 -149 q 54 -47 34 -87 q 137 33 83 12 q 115 47 126 39 q 85 113 85 72 q 90 148 85 129 q 178 244 108 217 q 68 453 68 294 q 296 685 68 685 q 442 646 387 685 l 605 685 l 635 627 l 478 612 q 523 453 523 555 q 296 222 523 222 q 267 222 280 222 q 235 226 254 223 q 188 186 210 213 q 167 140 167 160 q 184 106 167 117 z "},"h":{"ha":602,"x_min":34,"x_max":511,"o":"m 34 0 l 34 1010 l 136 1010 l 136 645 q 313 685 218 685 q 469 630 427 685 q 511 431 511 576 l 511 0 l 409 0 l 409 378 q 385 564 409 520 q 279 608 359 608 q 264 608 272 608 q 136 573 200 604 l 136 0 l 34 0 z "},"i":{"ha":270,"x_min":34,"x_max":168,"o":"m 54 678 l 153 678 l 153 0 l 54 0 l 54 678 m 102 833 q 54 852 73 833 q 34 901 34 872 q 54 951 34 929 q 102 975 74 975 q 149 951 128 975 q 168 901 168 929 q 149 852 168 872 q 102 833 129 833 z "},"j":{"ha":365,"x_min":34,"x_max":246,"o":"m 180 833 q 132 852 151 833 q 112 901 112 872 q 132 951 112 929 q 180 975 152 975 q 227 951 206 975 q 246 901 246 929 q 227 852 246 872 q 180 833 207 833 m 129 678 l 231 678 l 231 0 q 198 -262 231 -211 q 92 -312 166 -312 q 34 -302 59 -312 l 45 -220 q 64 -221 55 -221 q 108 -204 92 -221 q 129 0 129 -182 l 129 678 z "},"k":{"ha":587,"x_min":34,"x_max":495,"o":"m 395 342 q 463 227 442 306 q 485 40 481 160 q 495 0 486 18 l 395 0 q 383 42 385 14 q 370 192 379 144 q 327 285 357 256 q 174 325 284 325 l 136 325 l 136 0 l 34 0 l 34 1017 l 136 1017 l 136 391 q 159 391 149 391 l 345 682 l 467 682 l 245 387 q 395 342 339 387 z "},"l":{"ha":241,"x_min":34,"x_max":129,"o":"m 34 1017 l 129 1017 l 129 0 l 34 0 l 34 1017 z "},"m":{"ha":1008,"x_min":34,"x_max":903,"o":"m 730 685 q 875 631 836 685 q 903 493 903 577 l 903 0 l 801 0 l 801 509 q 742 604 795 592 q 696 608 726 608 q 667 608 683 608 q 518 564 595 604 l 518 0 l 416 0 l 416 506 q 311 608 414 604 q 283 608 298 608 q 143 573 206 603 l 143 0 l 41 0 l 41 608 q 34 672 41 635 l 125 678 q 139 645 134 662 q 346 685 264 685 q 485 631 450 685 q 730 685 590 685 z "},"n":{"ha":647,"x_min":34,"x_max":542,"o":"m 370 685 q 513 631 475 685 q 542 543 538 603 l 542 0 l 440 0 l 440 474 q 424 576 439 554 q 381 604 409 597 q 335 608 365 608 q 307 608 322 608 q 143 573 226 603 l 143 0 l 41 0 l 41 608 q 34 672 41 635 l 125 678 q 139 645 134 662 q 370 685 288 685 z "},"o":{"ha":699,"x_min":34,"x_max":601,"o":"m 372 62 q 460 121 436 80 q 493 329 493 178 l 493 341 q 456 559 491 502 q 366 616 431 600 q 326 618 351 618 l 314 618 q 263 615 282 618 q 174 557 198 597 q 142 349 142 500 l 142 337 q 179 118 144 176 q 269 62 203 78 q 320 59 288 59 q 372 62 353 60 m 382 683 q 551 601 503 673 q 601 346 601 526 q 551 84 601 164 q 382 -5 500 5 q 317 -7 361 -7 q 252 -5 272 -7 q 84 77 132 5 q 34 332 34 152 q 84 594 34 514 q 252 683 134 673 q 317 685 274 685 q 382 683 362 685 z "},"p":{"ha":659,"x_min":34,"x_max":568,"o":"m 340 61 q 431 111 407 68 q 466 332 466 170 q 427 555 466 494 q 334 603 399 600 l 325 603 q 141 520 224 603 l 141 111 q 226 77 171 94 q 321 60 281 60 q 340 61 331 60 m 358 685 q 522 604 474 685 q 568 338 568 526 q 511 77 568 161 q 347 -6 458 -1 q 320 -7 334 -7 q 141 27 223 -7 l 141 -407 l 39 -407 l 39 576 q 34 665 39 620 l 124 678 q 135 623 132 660 q 137 601 136 613 q 203 650 159 627 q 358 685 273 685 z "},"q":{"ha":682,"x_min":34,"x_max":570,"o":"m 261 604 q 174 557 201 604 q 136 333 136 494 q 178 111 136 172 q 275 64 208 68 q 288 63 281 63 q 406 111 354 63 q 461 189 439 143 l 461 496 q 261 604 392 604 m 243 -12 q 84 73 132 -3 q 34 332 34 152 q 91 597 34 512 q 254 678 145 678 q 408 637 337 678 q 461 596 443 616 q 481 671 465 633 l 570 659 q 562 570 562 613 l 562 -414 l 460 -414 l 460 79 q 273 -14 395 -14 q 243 -12 259 -14 z "},"r":{"ha":515,"x_min":34,"x_max":423,"o":"m 322 539 q 288 583 322 583 q 196 530 240 583 q 146 425 158 485 l 146 0 l 45 0 l 45 524 q 34 672 45 594 l 132 678 q 142 557 142 610 q 197 621 163 589 q 334 685 266 685 q 399 652 375 685 q 423 539 423 617 l 322 539 z "},"s":{"ha":519,"x_min":34,"x_max":431,"o":"m 348 347 q 431 174 431 291 q 376 38 431 85 q 230 -7 323 -7 l 214 -7 q 68 60 115 -3 q 34 178 34 107 l 130 178 q 146 105 130 125 q 229 68 176 70 q 299 85 278 68 q 330 174 330 110 q 279 281 330 239 q 176 344 258 299 q 77 427 106 389 q 46 515 48 464 q 98 643 46 598 q 232 685 148 685 l 239 685 q 347 644 309 683 q 385 534 385 604 l 283 534 q 277 580 283 562 q 235 616 267 612 q 216 618 225 618 q 162 596 181 618 q 141 547 145 578 l 141 540 q 144 506 141 521 q 229 414 155 460 q 292 378 250 401 q 348 347 332 357 z "},"t":{"ha":507,"x_min":34,"x_max":415,"o":"m 415 66 q 264 -7 342 -7 q 185 18 219 -7 q 133 136 133 55 l 133 604 l 34 604 l 34 656 l 43 656 q 119 682 86 656 q 164 761 149 704 q 173 814 172 789 l 235 814 l 235 672 l 368 672 l 368 604 l 235 604 l 235 239 q 237 132 235 158 q 256 79 241 94 q 283 68 266 68 q 326 79 300 68 q 385 115 354 92 l 415 66 z "},"u":{"ha":667,"x_min":34,"x_max":555,"o":"m 547 101 q 555 6 547 58 l 466 0 q 452 56 455 18 q 450 76 451 64 q 357 28 417 55 q 197 -7 281 -7 q 57 58 90 -7 q 34 235 34 98 l 34 678 l 135 678 l 135 235 q 151 106 135 139 q 220 68 168 71 l 229 68 q 353 98 288 68 q 446 150 412 122 l 446 678 l 547 678 l 547 101 z "},"v":{"ha":635,"x_min":31,"x_max":544,"o":"m 544 678 l 357 0 l 228 0 l 31 678 l 135 678 l 290 79 l 294 79 l 439 678 l 544 678 z "},"w":{"ha":940,"x_min":31,"x_max":848,"o":"m 848 678 l 694 0 l 566 0 l 437 551 l 434 551 l 331 0 l 195 0 l 31 678 l 135 678 l 264 79 l 268 79 l 387 678 l 492 678 l 621 79 l 625 79 l 744 678 l 848 678 z "},"x":{"ha":621,"x_min":34,"x_max":529,"o":"m 526 678 l 346 339 l 529 0 l 412 0 l 281 284 l 151 0 l 34 0 l 220 339 l 37 678 l 155 678 l 281 392 l 408 678 l 526 678 z "},"y":{"ha":636,"x_min":31,"x_max":548,"o":"m 548 678 q 329 -190 404 60 q 260 -355 290 -318 q 138 -414 214 -414 q 81 -407 100 -414 l 85 -332 q 112 -334 97 -334 l 122 -334 q 189 -305 162 -332 q 246 -161 216 -277 q 286 -7 262 -99 q 258 4 268 -1 q 200 77 214 26 q 31 678 158 231 l 138 678 q 277 113 241 255 q 307 71 287 76 q 456 678 376 349 l 548 678 z "},"z":{"ha":612,"x_min":34,"x_max":521,"o":"m 511 678 l 521 625 l 165 71 l 521 71 l 521 0 l 44 0 l 34 68 l 397 608 l 66 608 l 66 678 l 511 678 z "},"{":{"ha":484,"x_min":47,"x_max":402,"o":"m 180 781 q 241 970 180 895 q 384 1041 300 1041 q 402 1015 402 1041 q 401 1004 402 1010 q 393 966 399 985 q 378 968 385 968 q 335 954 356 968 q 277 787 277 916 l 277 646 q 258 492 277 537 q 138 397 229 420 q 258 302 229 373 q 277 147 277 256 l 277 6 q 335 -161 277 -123 q 378 -174 356 -174 q 393 -172 385 -174 q 401 -210 399 -191 q 402 -221 402 -216 q 384 -248 402 -248 q 241 -176 300 -248 q 180 12 180 -102 l 180 153 q 124 338 180 284 q 47 374 102 359 l 47 419 q 124 455 102 434 q 180 640 180 509 l 180 781 z "},"|":{"ha":226,"x_min":47,"x_max":124,"o":"m 47 1133 l 124 1133 l 124 -359 l 47 -359 l 47 1133 z "},"}":{"ha":470,"x_min":47,"x_max":402,"o":"m 270 640 q 326 455 270 509 q 402 419 347 434 l 402 374 q 326 338 347 359 q 270 153 270 284 l 270 12 q 209 -176 270 -102 q 66 -248 150 -248 q 47 -221 47 -248 q 48 -210 47 -216 q 56 -172 50 -191 q 72 -174 64 -174 q 115 -161 94 -174 q 173 6 173 -123 l 173 147 q 192 302 173 256 q 311 397 220 373 q 192 492 220 420 q 173 646 173 537 l 173 787 q 115 954 173 916 q 72 968 94 968 q 56 966 64 968 q 48 1004 50 985 q 47 1015 47 1010 q 66 1041 47 1041 q 209 970 150 1041 q 270 781 270 895 l 270 640 z "},"~":{"ha":762,"x_min":47,"x_max":660,"o":"m 602 463 q 660 448 635 458 q 631 385 650 419 q 545 300 592 319 q 467 285 507 285 q 434 288 451 285 q 353 318 388 295 q 271 378 356 317 q 204 408 231 408 q 197 408 200 408 q 165 387 178 405 q 146 350 157 376 q 130 315 136 323 q 109 302 121 302 l 106 302 q 47 317 72 307 q 77 380 58 346 q 162 465 115 446 q 240 480 200 480 q 273 477 256 480 q 354 447 319 470 q 436 387 351 448 q 503 357 477 357 q 511 357 507 357 q 543 378 530 360 q 561 415 551 389 q 577 450 571 441 q 598 463 586 463 l 602 463 z "},"¡":{"ha":224,"x_min":52,"x_max":172,"o":"m 145 492 q 167 31 167 226 q 161 -141 167 -64 q 140 -276 155 -248 q 112 -285 135 -285 q 85 -276 90 -285 q 64 -141 71 -245 q 58 34 58 -62 q 80 492 58 227 l 145 492 m 113 553 q 70 573 88 553 q 52 618 52 593 q 70 661 52 643 q 113 678 87 678 q 155 661 138 678 q 172 618 172 643 q 155 573 172 593 q 113 553 137 553 z "},"¢":{"ha":626,"x_min":34,"x_max":524,"o":"m 311 74 q 480 125 404 82 l 524 76 q 311 -4 435 8 l 311 -271 l 234 -271 l 234 -6 q 85 75 131 1 q 34 339 34 155 q 85 600 34 522 q 234 682 132 670 l 234 949 l 311 949 l 311 684 q 416 661 362 679 q 499 620 485 637 l 451 570 q 311 610 389 604 l 311 74 m 234 609 q 174 568 194 600 q 136 346 136 509 q 174 120 136 182 q 234 76 195 85 l 234 609 z "},"£":{"ha":808,"x_min":34,"x_max":707,"o":"m 707 112 q 599 12 677 42 q 484 -7 547 -7 q 448 -5 467 -7 q 376 9 422 -3 q 300 27 314 24 q 259 32 277 32 q 199 0 211 32 l 92 0 q 140 161 93 0 q 170 352 170 262 q 163 435 170 395 l 34 435 l 34 539 l 137 539 q 117 676 117 612 q 149 821 117 756 q 227 910 174 875 q 335 953 275 944 q 375 956 355 956 q 449 944 413 956 q 543 878 507 924 q 580 745 580 830 l 463 745 q 438 820 463 787 q 375 860 413 855 q 358 861 366 861 q 304 846 328 861 q 252 773 269 823 q 244 714 244 751 q 269 539 244 649 l 448 539 l 448 435 l 292 435 q 303 373 299 401 q 306 335 306 355 q 223 91 306 224 q 336 136 275 136 l 342 136 q 456 113 367 136 q 551 99 510 99 q 600 106 578 99 q 652 140 626 113 l 707 112 z "},"¤":{"ha":732,"x_min":34,"x_max":644,"o":"m 339 138 q 485 199 425 138 q 545 346 545 260 q 485 493 545 431 q 339 554 425 554 q 193 493 254 554 q 133 346 133 431 q 193 199 133 260 q 339 138 254 138 m 635 346 q 577 170 635 248 l 644 102 l 583 41 l 515 108 q 339 50 437 50 q 163 108 241 50 l 96 41 l 34 102 l 101 170 q 43 346 43 248 q 101 522 43 444 l 34 589 l 96 651 l 163 584 q 339 642 241 642 q 515 584 437 642 l 583 651 l 644 589 l 577 522 q 635 346 635 444 z "},"¥":{"ha":744,"x_min":47,"x_max":642,"o":"m 390 285 l 390 0 l 300 0 l 300 285 l 47 285 l 47 339 l 300 339 l 300 387 l 297 393 l 47 393 l 47 448 l 275 448 l 72 949 l 168 949 l 341 489 l 349 489 l 522 949 l 618 949 l 414 448 l 642 448 l 642 393 l 393 393 l 390 387 l 390 339 l 642 339 l 642 285 l 390 285 z "},"¦":{"ha":226,"x_min":47,"x_max":124,"o":"m 47 1129 l 124 1129 l 124 488 l 47 488 l 47 1129 m 47 228 l 124 228 l 124 -414 l 47 -414 l 47 228 z "},"§":{"ha":516,"x_min":21,"x_max":462,"o":"m 294 363 q 365 313 338 338 q 391 396 391 353 q 318 512 391 460 l 189 587 q 118 637 145 612 q 92 554 92 597 q 165 438 92 490 l 294 363 m 406 266 q 431 172 429 227 l 431 161 q 376 14 431 66 q 234 -33 323 -33 l 225 -33 q 111 14 151 -31 q 71 139 71 58 l 180 139 q 186 71 180 91 q 231 29 197 35 q 251 28 241 28 q 307 52 288 28 q 328 124 328 77 q 323 172 328 146 q 236 277 315 224 q 169 317 215 290 q 110 353 126 341 q 21 550 21 416 q 77 684 21 628 q 52 778 54 723 l 52 789 q 107 936 52 884 q 249 984 159 984 l 258 984 q 372 937 332 981 q 412 811 412 892 l 303 811 q 297 880 303 859 q 252 921 286 916 q 232 922 242 922 q 176 898 195 922 q 155 826 155 873 q 159 778 155 804 q 247 673 168 726 q 314 633 268 660 q 373 597 357 609 q 462 400 462 534 q 406 266 462 322 z "},"¨":{"ha":541,"x_min":47,"x_max":439,"o":"m 113 963 q 66 985 87 963 q 47 1034 47 1006 q 66 1080 47 1061 q 113 1099 85 1099 q 158 1080 139 1099 q 177 1034 177 1061 q 158 985 177 1006 q 113 963 138 963 m 375 963 q 329 985 349 963 q 310 1034 310 1006 q 329 1080 310 1061 q 375 1099 348 1099 q 420 1080 401 1099 q 439 1034 439 1061 q 420 985 439 1006 q 375 963 401 963 z "},"©":{"ha":1085,"x_min":34,"x_max":983,"o":"m 498 234 q 684 281 604 234 l 723 238 q 487 165 627 165 q 338 237 383 165 q 294 468 294 307 q 339 696 294 627 q 490 770 383 764 q 507 770 498 770 q 629 749 566 770 q 701 713 689 729 l 659 670 q 498 707 591 707 q 416 669 441 707 q 383 474 383 616 q 416 276 383 331 q 498 234 442 234 m 509 64 q 791 183 674 64 q 909 468 909 302 q 791 753 909 634 q 509 871 674 871 q 226 753 343 871 q 108 468 108 634 q 226 183 108 302 q 509 64 343 64 m 509 943 q 844 804 705 943 q 983 468 983 665 q 844 132 983 271 q 509 -7 705 -7 q 173 132 312 -7 q 34 468 34 271 q 173 804 34 665 q 509 943 312 943 z "},"ª":{"ha":443,"x_min":34,"x_max":341,"o":"m 269 735 q 156 731 186 735 q 110 711 121 726 q 101 673 103 700 q 100 656 100 664 q 105 612 100 631 q 149 576 114 576 q 188 584 166 576 q 268 618 199 588 l 269 735 m 336 603 q 341 546 336 575 l 282 538 q 272 568 276 546 q 272 582 272 573 q 176 544 210 557 q 120 534 147 534 q 97 536 108 534 q 46 573 58 543 q 34 673 34 603 q 43 722 34 701 q 93 765 58 757 q 269 776 137 776 l 269 851 q 265 889 269 881 q 248 902 261 898 q 215 905 236 905 q 195 905 206 905 q 65 886 144 903 l 49 928 q 234 949 155 949 q 322 921 300 949 q 336 858 336 904 l 336 603 m 39 480 l 336 480 l 336 426 l 39 426 l 39 480 z "},"«":{"ha":584,"x_min":34,"x_max":536,"o":"m 342 371 l 536 155 q 505 129 523 140 q 469 113 482 113 q 460 115 464 113 q 249 371 338 224 q 460 627 338 518 q 469 631 464 631 q 505 614 482 631 q 536 587 523 602 l 342 371 m 128 368 l 322 130 q 290 103 308 115 q 255 87 267 87 q 245 91 249 87 q 34 368 123 199 q 245 646 123 538 q 255 650 249 650 q 290 634 267 650 q 322 608 308 622 l 128 368 z "},"¬":{"ha":688,"x_min":136,"x_max":543,"o":"m 543 814 l 543 712 l 542 712 l 542 543 l 444 543 l 444 712 l 136 712 l 136 814 l 543 814 z "},"®":{"ha":1085,"x_min":34,"x_max":983,"o":"m 496 470 q 591 505 556 470 q 625 593 625 538 q 498 708 625 708 l 408 708 l 408 470 l 496 470 m 640 425 q 696 352 678 401 q 716 206 713 302 q 725 172 717 187 l 640 172 q 629 208 630 184 q 579 383 624 339 q 478 418 545 418 l 408 418 l 408 172 l 319 172 l 319 765 l 507 765 q 664 718 610 765 q 715 595 715 674 q 672 487 715 528 q 583 446 636 453 q 640 425 614 441 m 509 64 q 792 183 674 64 q 909 468 909 302 q 792 753 909 634 q 509 871 674 871 q 225 753 343 871 q 108 468 108 634 q 225 183 108 302 q 509 64 343 64 m 509 943 q 844 804 705 943 q 983 468 983 665 q 844 132 983 271 q 509 -7 705 -7 q 173 132 312 -7 q 34 468 34 271 q 173 804 34 665 q 509 943 312 943 z "},"¯":{"ha":590,"x_min":47,"x_max":488,"o":"m 47 932 l 488 932 l 488 831 l 47 831 l 47 932 z "},"°":{"ha":468,"x_min":47,"x_max":387,"o":"m 217 746 q 289 776 259 746 q 319 848 319 806 q 289 920 319 890 q 217 949 259 949 q 145 920 175 949 q 115 848 115 890 q 145 776 115 806 q 217 746 175 746 m 217 1017 q 337 968 288 1017 q 387 848 387 918 q 337 728 387 777 q 217 678 288 678 q 97 728 146 678 q 47 848 47 777 q 97 968 47 918 q 217 1017 146 1017 z "},"±":{"ha":726,"x_min":47,"x_max":624,"o":"m 385 766 l 385 521 l 624 521 l 624 422 l 385 422 l 385 176 l 286 176 l 286 422 l 47 422 l 47 521 l 286 521 l 286 766 l 385 766 m 115 102 l 563 102 l 563 0 l 115 0 l 115 102 z "},"²":{"ha":569,"x_min":37,"x_max":359,"o":"m 205 988 q 333 946 297 988 q 359 858 359 916 q 335 657 359 749 q 292 606 328 631 q 218 565 277 596 q 147 519 169 539 q 116 456 116 490 l 116 334 l 359 334 l 359 271 l 37 271 l 37 469 q 133 593 37 536 q 171 614 145 600 q 207 634 196 628 q 261 678 247 658 q 283 842 283 710 q 274 907 283 891 q 202 933 258 933 q 133 901 147 933 q 126 828 126 887 q 128 742 126 787 l 51 742 q 46 841 46 786 q 71 939 46 906 q 205 988 108 988 z "},"³":{"ha":551,"x_min":37,"x_max":348,"o":"m 269 688 q 348 418 348 618 q 323 322 348 357 q 196 271 287 271 q 62 316 99 271 q 37 409 37 347 q 40 473 37 464 l 117 473 l 117 423 q 124 354 117 367 q 193 326 138 326 q 264 362 248 326 q 272 434 272 380 q 262 537 272 483 q 216 642 247 614 q 172 664 196 660 q 148 665 163 665 q 98 662 128 665 l 98 723 q 203 758 179 744 q 244 831 242 782 q 245 848 245 839 q 239 903 245 884 q 193 941 228 939 q 179 942 186 942 q 120 915 135 942 q 110 841 110 896 l 110 828 l 37 841 l 37 856 q 60 949 37 918 q 182 994 94 994 q 290 949 255 994 q 318 860 318 914 q 298 770 318 804 q 209 710 273 726 q 269 688 248 707 z "},"´":{"ha":301,"x_min":34,"x_max":254,"o":"m 34 774 q 58 848 39 791 q 87 931 75 901 q 159 1037 123 1025 q 176 1038 167 1038 q 212 1034 191 1038 q 252 1008 247 1025 q 254 994 254 1001 q 177 846 254 941 q 86 745 132 790 l 34 774 z "},"µ":{"ha":800,"x_min":113,"x_max":699,"o":"m 699 13 q 628 -6 676 -6 q 555 24 576 -5 q 530 77 541 42 q 483 27 517 50 q 359 -7 432 -7 q 261 22 305 -7 q 214 77 222 48 l 214 -398 l 113 -398 l 113 679 l 214 679 l 214 280 q 250 127 214 183 q 359 69 288 69 q 520 188 492 69 l 520 679 l 622 679 l 622 178 q 630 85 622 104 q 654 64 639 64 l 657 64 q 680 69 670 65 l 699 13 z "},"¶":{"ha":740,"x_min":37,"x_max":638,"o":"m 638 878 l 567 878 l 567 -47 l 464 -47 l 464 878 l 382 878 l 382 -47 l 279 -47 l 279 398 l 270 398 q 115 461 181 398 q 37 652 38 533 l 37 661 q 109 853 37 779 q 339 949 203 949 l 638 949 l 638 878 z "},"·":{"ha":345,"x_min":47,"x_max":191,"o":"m 120 400 q 69 424 91 400 q 48 478 48 448 q 69 529 48 508 q 120 550 90 550 q 170 529 149 550 q 191 478 191 508 q 170 424 191 448 q 120 400 148 400 z "},"∙":{"ha":345,"x_min":47,"x_max":191,"o":"m 120 400 q 69 424 91 400 q 48 478 48 448 q 69 529 48 508 q 120 550 90 550 q 170 529 149 550 q 191 478 191 508 q 170 424 191 448 q 120 400 148 400 z "},"¸":{"ha":694,"x_min":243,"x_max":398,"o":"m 320 -43 l 321 -43 q 372 -69 349 -45 q 398 -163 398 -96 q 376 -236 398 -208 q 270 -273 349 -273 q 243 -273 260 -273 l 243 -225 l 261 -225 q 335 -204 315 -225 q 349 -157 349 -188 l 349 -155 q 331 -94 349 -117 q 286 -76 313 -76 l 268 -76 l 281 0 l 325 0 l 320 -43 z "},"¹":{"ha":358,"x_min":37,"x_max":193,"o":"m 194 988 l 194 271 l 115 271 l 115 905 l 37 905 l 37 950 q 89 966 60 952 q 121 983 111 976 l 194 988 z "},"º":{"ha":476,"x_min":34,"x_max":408,"o":"m 257 576 q 315 611 299 586 q 337 736 337 645 l 337 743 q 312 874 336 840 q 253 908 296 899 q 227 910 243 910 l 219 910 q 185 908 198 910 q 127 873 142 897 q 105 748 105 838 l 105 741 q 130 609 106 644 q 189 575 146 585 q 223 574 201 574 q 257 576 244 574 m 264 948 q 375 899 343 943 q 408 746 408 854 q 375 589 408 637 q 264 536 342 541 q 221 534 250 534 q 178 536 191 534 q 67 585 99 541 q 34 738 34 630 q 67 895 34 847 q 178 948 100 943 q 221 949 192 949 q 264 948 251 949 m 73 480 l 370 480 l 370 426 l 73 426 l 73 480 z "},"»":{"ha":584,"x_min":34,"x_max":536,"o":"m 34 587 q 65 614 48 602 q 101 631 88 631 q 111 627 107 631 q 322 371 233 518 q 111 115 233 224 q 102 113 107 113 q 65 129 88 113 q 34 155 48 140 l 229 371 l 34 587 m 249 608 q 280 634 263 622 q 316 650 303 650 q 326 646 322 650 q 536 368 448 538 q 326 91 448 199 q 316 87 322 87 q 280 103 303 87 q 249 130 263 115 l 443 368 l 249 608 z "},"¼":{"ha":954,"x_min":34,"x_max":852,"o":"m 546 231 l 713 231 l 713 597 l 546 231 m 675 949 l 201 -120 l 110 -120 l 585 949 l 675 949 m 791 231 l 852 231 l 852 178 l 791 173 l 791 0 l 713 0 l 713 173 l 471 173 l 463 219 l 713 712 l 791 718 l 791 231 m 191 989 l 191 271 l 111 271 l 111 905 l 34 905 l 34 950 q 86 966 56 952 q 117 983 107 977 l 191 989 z "},"½":{"ha":1049,"x_min":34,"x_max":947,"o":"m 191 989 l 191 271 l 111 271 l 111 905 l 34 905 l 34 950 q 86 966 56 952 q 117 983 107 977 l 191 989 m 793 718 q 922 675 885 718 q 947 587 947 644 q 923 386 947 477 q 880 335 916 359 q 806 294 865 325 q 735 248 757 268 q 704 185 704 219 l 704 62 l 947 62 l 947 0 l 625 0 l 625 198 q 721 321 625 265 q 759 343 733 329 q 795 363 784 357 q 849 406 835 387 q 871 571 871 439 q 862 635 871 620 q 790 663 846 663 q 721 630 735 663 q 715 557 715 616 q 716 471 715 515 l 639 471 q 634 570 634 515 q 659 668 634 634 q 793 718 696 718 m 711 949 l 168 -120 l 77 -120 l 620 949 l 711 949 z "},"¾":{"ha":1008,"x_min":34,"x_max":906,"o":"m 600 231 l 767 231 l 767 597 l 600 231 m 266 688 q 345 418 345 618 q 320 322 345 357 q 193 271 284 271 q 58 316 95 271 q 34 409 34 347 q 37 473 34 464 l 114 473 l 114 423 q 121 354 114 368 q 190 326 134 326 q 260 362 245 326 q 269 434 269 380 q 259 537 269 483 q 213 647 243 619 q 168 669 193 665 q 145 671 159 671 q 95 667 125 671 l 95 718 q 199 753 176 739 q 241 831 239 777 l 241 848 q 235 903 241 884 q 190 941 225 939 q 176 942 182 942 q 117 915 132 942 q 107 842 107 896 l 107 828 l 34 842 l 34 856 q 57 949 34 918 q 179 994 91 994 q 287 949 252 994 q 315 860 315 914 q 295 770 315 804 q 206 710 270 726 q 266 688 245 707 m 846 231 l 906 231 l 906 178 l 846 173 l 846 0 l 767 0 l 767 173 l 525 173 l 517 219 l 767 712 l 846 718 l 846 231 m 750 949 l 275 -120 l 184 -120 l 659 949 l 750 949 z "},"¿":{"ha":524,"x_min":56,"x_max":472,"o":"m 326 553 q 283 573 302 553 q 266 618 266 593 q 283 661 266 643 q 326 678 301 678 q 368 661 351 678 q 386 618 386 643 q 368 573 386 593 q 326 553 351 553 m 298 -281 q 247 -285 271 -285 q 157 -268 197 -285 q 77 -195 103 -245 q 56 -102 56 -153 q 56 -82 56 -92 q 95 47 61 -18 q 205 227 118 92 q 290 373 281 345 q 293 391 293 382 q 281 437 293 412 q 273 461 273 454 q 284 482 273 473 q 328 495 300 495 q 368 490 346 495 q 384 416 384 452 q 368 343 384 379 q 215 41 322 238 q 164 -119 164 -52 q 168 -150 164 -135 q 263 -218 182 -218 q 304 -215 282 -218 q 370 -140 370 -204 l 370 -136 q 368 -109 369 -125 q 365 -83 366 -89 q 364 -75 364 -79 q 372 -47 364 -55 q 421 -28 389 -28 q 433 -28 427 -28 q 470 -37 454 -31 q 472 -72 472 -54 q 444 -186 472 -133 q 298 -281 402 -267 z "},"À":{"ha":712,"x_min":34,"x_max":651,"o":"m 222 317 l 463 317 l 342 822 l 222 317 m 393 949 l 651 0 l 539 0 l 480 245 l 205 245 l 146 0 l 34 0 l 298 949 l 393 949 m 293 976 q 241 1035 267 1002 q 196 1120 196 1090 q 197 1128 196 1124 q 220 1143 200 1138 q 241 1146 232 1146 q 251 1145 246 1146 q 293 1084 271 1139 q 309 1036 300 1067 q 323 993 320 1002 l 293 976 z "},"Á":{"ha":712,"x_min":34,"x_max":651,"o":"m 222 317 l 463 317 l 342 822 l 222 317 m 393 949 l 651 0 l 539 0 l 480 245 l 205 245 l 146 0 l 34 0 l 298 949 l 393 949 m 344 993 q 358 1036 347 1002 q 374 1084 368 1067 q 416 1145 396 1139 q 426 1146 421 1146 q 447 1143 435 1146 q 471 1128 467 1138 q 471 1120 471 1124 q 427 1035 471 1090 q 374 976 401 1002 l 344 993 z "},"Â":{"ha":712,"x_min":34,"x_max":651,"o":"m 222 317 l 463 317 l 342 822 l 222 317 m 393 949 l 651 0 l 539 0 l 480 245 l 205 245 l 146 0 l 34 0 l 298 949 l 393 949 m 484 1015 q 486 1011 486 1013 q 463 996 486 1002 q 433 990 449 992 l 342 1088 l 251 990 q 222 996 236 992 q 199 1011 199 1002 q 200 1015 199 1013 l 334 1153 l 351 1153 l 484 1015 z "},"Ã":{"ha":712,"x_min":34,"x_max":651,"o":"m 222 317 l 463 317 l 342 822 l 222 317 m 393 949 l 651 0 l 539 0 l 480 245 l 205 245 l 146 0 l 34 0 l 298 949 l 393 949 m 479 1069 q 465 1041 474 1056 q 428 1003 448 1012 q 393 997 411 997 q 378 998 386 997 q 342 1011 358 1001 l 307 1038 q 277 1051 288 1051 q 273 1050 275 1051 q 259 1042 265 1050 q 251 1025 256 1037 q 244 1010 247 1014 q 235 1004 240 1004 l 233 1004 q 208 1010 218 1006 q 220 1038 212 1023 q 258 1076 237 1067 q 292 1083 275 1083 q 307 1082 300 1083 q 343 1068 328 1078 l 379 1042 q 409 1028 397 1028 q 412 1029 411 1028 q 427 1038 420 1029 q 435 1054 430 1042 q 441 1069 439 1065 q 451 1075 446 1075 l 452 1075 q 479 1069 468 1073 z "},"Ä":{"ha":712,"x_min":34,"x_max":651,"o":"m 222 317 l 463 317 l 342 822 l 222 317 m 393 949 l 651 0 l 539 0 l 480 245 l 205 245 l 146 0 l 34 0 l 298 949 l 393 949 m 428 1019 q 409 1067 409 1040 q 428 1114 409 1095 q 474 1133 447 1133 q 519 1114 500 1133 q 538 1067 538 1095 q 519 1019 538 1040 q 474 997 500 997 q 428 1019 448 997 m 165 1019 q 146 1067 146 1040 q 165 1114 146 1095 q 212 1133 184 1133 q 257 1114 238 1133 q 276 1067 276 1095 q 257 1019 276 1040 q 212 997 237 997 q 165 1019 186 997 z "},"Å":{"ha":712,"x_min":34,"x_max":651,"o":"m 222 317 l 463 317 l 342 822 l 222 317 m 307 998 q 292 1034 292 1013 q 307 1070 292 1055 q 342 1085 321 1085 q 378 1070 363 1085 q 393 1034 393 1055 q 378 998 393 1013 q 342 983 363 983 q 307 998 321 983 m 282 1094 q 258 1034 258 1069 q 282 974 258 999 q 342 949 307 949 q 402 974 377 949 q 427 1034 427 999 q 402 1094 427 1069 q 342 1119 377 1119 q 282 1094 307 1119 m 393 949 l 651 0 l 539 0 l 480 245 l 205 245 l 146 0 l 34 0 l 298 949 l 393 949 z "},"Æ":{"ha":1004,"x_min":34,"x_max":977,"o":"m 973 949 l 973 885 l 578 885 l 578 517 l 946 517 l 946 453 l 578 453 l 578 64 l 977 64 l 977 0 l 473 0 l 473 245 l 252 245 l 153 0 l 34 0 l 420 949 l 973 949 m 473 317 l 473 824 l 276 317 l 473 317 z "},"Ç":{"ha":745,"x_min":47,"x_max":643,"o":"m 643 98 q 317 0 511 0 q 126 96 187 0 q 47 481 47 209 q 126 850 47 737 q 318 960 180 945 q 366 963 342 963 q 518 942 444 963 q 618 898 592 918 l 570 844 q 396 886 486 886 q 370 885 383 886 q 323 882 347 885 q 215 800 255 875 q 161 488 161 699 q 214 160 161 261 q 323 84 255 84 q 592 155 469 84 l 643 98 m 345 -43 l 346 -43 q 397 -69 373 -45 q 422 -163 422 -96 q 401 -236 422 -208 q 294 -273 374 -273 q 268 -273 285 -273 l 268 -225 l 286 -225 q 359 -204 340 -225 q 374 -157 374 -188 l 374 -155 q 355 -94 374 -117 q 310 -76 337 -76 l 292 -76 l 306 0 l 349 0 l 345 -43 z "},"È":{"ha":652,"x_min":47,"x_max":551,"o":"m 547 949 l 547 885 l 153 885 l 153 517 l 520 517 l 520 453 l 153 453 l 153 64 l 551 64 l 551 0 l 47 0 l 47 949 l 547 949 m 250 976 q 197 1035 223 1002 q 153 1120 153 1090 q 153 1128 153 1124 q 177 1143 157 1138 q 198 1146 189 1146 q 208 1145 203 1146 q 250 1084 228 1139 q 266 1036 256 1067 q 280 993 277 1002 l 250 976 z "},"É":{"ha":652,"x_min":47,"x_max":551,"o":"m 547 949 l 547 885 l 153 885 l 153 517 l 520 517 l 520 453 l 153 453 l 153 64 l 551 64 l 551 0 l 47 0 l 47 949 l 547 949 m 226 993 q 240 1036 229 1002 q 256 1084 250 1067 q 298 1145 278 1139 q 308 1146 303 1146 q 329 1143 317 1146 q 353 1128 349 1138 q 353 1120 353 1124 q 309 1035 353 1090 q 256 976 283 1002 l 226 993 z "},"Ê":{"ha":652,"x_min":47,"x_max":551,"o":"m 547 949 l 547 885 l 153 885 l 153 517 l 520 517 l 520 453 l 153 453 l 153 64 l 551 64 l 551 0 l 47 0 l 47 949 l 547 949 m 440 1015 q 442 1011 442 1013 q 419 996 442 1002 q 389 990 406 992 l 299 1088 l 208 990 q 179 996 193 992 q 156 1011 156 1002 q 157 1015 156 1013 l 291 1153 l 307 1153 l 440 1015 z "},"Ë":{"ha":659,"x_min":47,"x_max":551,"o":"m 547 949 l 547 885 l 153 885 l 153 517 l 520 517 l 520 453 l 153 453 l 153 64 l 551 64 l 551 0 l 47 0 l 47 949 l 547 949 m 385 1019 q 366 1067 366 1040 q 385 1114 366 1095 q 431 1133 404 1133 q 476 1114 457 1133 q 495 1067 495 1095 q 476 1019 495 1040 q 431 997 456 997 q 385 1019 405 997 m 122 1019 q 103 1067 103 1040 q 122 1114 103 1095 q 168 1133 141 1133 q 214 1114 195 1133 q 233 1067 233 1095 q 214 1019 233 1040 q 168 997 194 997 q 122 1019 142 997 z "},"Ì":{"ha":294,"x_min":34,"x_max":192,"o":"m 87 949 l 192 949 l 192 0 l 87 0 l 87 949 m 131 976 q 79 1035 104 1002 q 34 1120 34 1090 q 35 1128 34 1124 q 58 1143 38 1138 q 79 1146 70 1146 q 89 1145 84 1146 q 131 1084 109 1139 q 147 1036 138 1067 q 161 993 158 1002 l 131 976 z "},"Í":{"ha":283,"x_min":34,"x_max":182,"o":"m 34 949 l 139 949 l 139 0 l 34 0 l 34 949 m 54 993 q 68 1036 58 1002 q 85 1084 78 1067 q 127 1145 106 1139 q 136 1146 132 1146 q 157 1143 146 1146 q 181 1128 178 1138 q 182 1120 182 1124 q 137 1035 182 1090 q 85 976 111 1002 l 54 993 z "},"Î":{"ha":422,"x_min":34,"x_max":320,"o":"m 124 949 l 229 949 l 229 0 l 124 0 l 124 949 m 318 1022 q 320 1018 320 1020 q 297 1003 320 1009 q 267 997 283 999 l 177 1095 l 85 997 q 57 1003 71 999 q 34 1018 34 1009 q 35 1022 34 1020 l 169 1160 l 185 1160 l 318 1022 z "},"Ï":{"ha":527,"x_min":34,"x_max":425,"o":"m 177 949 l 282 949 l 282 0 l 177 0 l 177 949 m 315 1019 q 296 1067 296 1040 q 315 1114 296 1095 q 361 1133 334 1133 q 407 1114 388 1133 q 425 1067 425 1095 q 407 1019 425 1040 q 361 997 387 997 q 315 1019 335 997 m 53 1019 q 34 1067 34 1040 q 53 1114 34 1095 q 99 1133 71 1133 q 144 1114 125 1133 q 163 1067 163 1095 q 144 1019 163 1040 q 99 997 125 997 q 53 1019 73 997 z "},"Ð":{"ha":1007,"x_min":34,"x_max":905,"o":"m 258 502 l 258 949 l 532 949 q 620 947 595 949 q 833 836 768 933 q 905 484 905 729 q 840 123 905 235 q 634 3 778 16 q 517 0 605 0 l 258 0 l 258 448 l 34 448 l 34 502 l 258 502 m 363 502 l 581 502 l 581 448 l 363 448 l 363 71 l 517 71 q 630 78 606 71 q 743 163 709 99 q 790 455 790 251 l 790 477 q 730 793 788 699 q 608 875 689 861 q 511 878 588 878 l 363 878 l 363 502 z "},"Ñ":{"ha":761,"x_min":47,"x_max":639,"o":"m 150 935 q 488 291 411 463 q 538 144 519 235 q 534 229 534 209 l 534 949 l 639 949 l 639 0 l 518 0 q 201 623 280 460 q 148 764 166 678 q 153 678 153 698 l 153 0 l 47 0 l 47 949 l 150 935 m 547 1090 q 528 1049 541 1072 q 471 992 502 1005 q 419 983 446 983 q 397 984 408 983 q 343 1004 366 989 q 289 1044 343 1005 q 244 1064 262 1064 l 239 1064 q 218 1050 227 1062 q 206 1025 212 1042 q 195 1002 199 1008 q 181 994 189 994 l 179 994 q 140 1004 156 997 q 159 1045 146 1023 q 216 1102 185 1089 q 268 1112 241 1112 q 290 1110 279 1112 q 344 1090 321 1105 q 398 1050 344 1089 q 443 1030 425 1030 l 448 1030 q 469 1044 460 1032 q 481 1069 475 1052 q 492 1092 488 1086 q 506 1100 498 1100 l 508 1100 q 547 1090 531 1097 z "},"Ò":{"ha":814,"x_min":47,"x_max":722,"o":"m 456 69 q 565 155 532 84 q 607 452 607 243 l 607 477 q 559 800 605 707 q 450 882 526 869 q 393 885 430 885 l 381 885 q 313 880 336 884 q 205 795 237 865 q 163 498 163 707 l 163 472 q 210 150 165 243 q 320 68 244 81 q 376 64 340 64 l 389 64 q 456 69 434 65 m 663 840 q 722 484 722 735 q 663 120 722 231 q 463 -4 604 9 q 385 -7 437 -6 l 369 -7 q 307 -4 332 -7 q 107 110 165 9 q 47 465 47 214 q 107 829 47 718 q 307 954 166 940 q 385 956 332 956 l 400 956 q 463 954 438 956 q 663 840 605 940 m 336 976 q 283 1035 309 1002 q 239 1120 239 1090 q 239 1128 239 1124 q 263 1143 243 1138 q 284 1146 275 1146 q 294 1145 289 1146 q 336 1084 314 1139 q 352 1036 342 1067 q 366 993 363 1002 l 336 976 z "},"Ó":{"ha":814,"x_min":47,"x_max":722,"o":"m 456 69 q 565 155 532 84 q 607 452 607 243 l 607 477 q 559 800 605 707 q 450 882 526 869 q 393 885 430 885 l 381 885 q 313 880 336 884 q 205 795 237 865 q 163 498 163 707 l 163 472 q 210 150 165 243 q 320 68 244 81 q 376 64 340 64 l 389 64 q 456 69 434 65 m 663 840 q 722 484 722 735 q 663 120 722 231 q 463 -4 604 9 q 385 -7 437 -6 l 369 -7 q 307 -4 332 -7 q 107 110 165 9 q 47 465 47 214 q 107 829 47 718 q 307 954 166 940 q 385 956 332 956 l 400 956 q 463 954 438 956 q 663 840 605 940 m 312 993 q 326 1036 315 1002 q 342 1084 336 1067 q 385 1145 364 1139 q 394 1146 389 1146 q 415 1143 404 1146 q 439 1128 435 1138 q 439 1120 439 1124 q 395 1035 439 1090 q 342 976 369 1002 l 312 993 z "},"Ô":{"ha":814,"x_min":47,"x_max":722,"o":"m 456 69 q 565 155 532 84 q 607 452 607 243 l 607 477 q 559 800 605 707 q 450 882 526 869 q 393 885 430 885 l 381 885 q 313 880 336 884 q 205 795 237 865 q 163 498 163 707 l 163 472 q 210 150 165 243 q 320 68 244 81 q 376 64 340 64 l 389 64 q 456 69 434 65 m 663 840 q 722 484 722 735 q 663 120 722 231 q 463 -4 604 9 q 385 -7 437 -6 l 369 -7 q 307 -4 332 -7 q 107 110 165 9 q 47 465 47 214 q 107 829 47 718 q 307 954 166 940 q 385 956 332 956 l 400 956 q 463 954 438 956 q 663 840 605 940 m 526 1022 q 528 1018 528 1020 q 505 1003 528 1009 q 475 997 492 999 l 385 1095 l 294 997 q 265 1003 279 999 q 242 1018 242 1009 q 243 1022 242 1020 l 377 1160 l 393 1160 l 526 1022 z "},"Õ":{"ha":814,"x_min":47,"x_max":722,"o":"m 456 69 q 565 155 532 84 q 607 452 607 243 l 607 477 q 559 800 605 707 q 450 882 526 869 q 393 885 430 885 l 381 885 q 313 880 336 884 q 205 795 237 865 q 163 498 163 707 l 163 472 q 210 150 165 243 q 320 68 244 81 q 376 64 340 64 l 389 64 q 456 69 434 65 m 663 840 q 722 484 722 735 q 663 120 722 231 q 463 -4 604 9 q 385 -7 437 -6 l 369 -7 q 307 -4 332 -7 q 107 110 165 9 q 47 465 47 214 q 107 829 47 718 q 307 954 166 940 q 385 956 332 956 l 400 956 q 463 954 438 956 q 663 840 605 940 m 589 1090 q 569 1049 582 1072 q 512 992 543 1005 q 460 983 487 983 q 438 984 450 983 q 385 1004 408 989 q 330 1044 385 1005 q 286 1064 303 1064 l 281 1064 q 259 1050 268 1062 q 248 1025 254 1042 q 237 1002 241 1008 q 222 994 231 994 l 220 994 q 182 1004 197 997 q 201 1045 188 1023 q 258 1102 227 1089 q 309 1112 283 1112 q 332 1110 320 1112 q 385 1090 362 1105 q 439 1050 385 1089 q 484 1030 467 1030 l 489 1030 q 511 1044 502 1032 q 522 1069 516 1052 q 533 1092 529 1086 q 547 1100 539 1100 l 549 1100 q 589 1090 572 1097 z "},"Ö":{"ha":814,"x_min":47,"x_max":722,"o":"m 456 69 q 565 155 532 84 q 607 452 607 243 l 607 477 q 559 800 605 707 q 450 882 526 869 q 393 885 430 885 l 381 885 q 313 880 336 884 q 205 795 237 865 q 163 498 163 707 l 163 472 q 210 150 165 243 q 320 68 244 81 q 376 64 340 64 l 389 64 q 456 69 434 65 m 663 840 q 722 484 722 735 q 663 120 722 231 q 463 -4 604 9 q 385 -7 437 -6 l 369 -7 q 307 -4 332 -7 q 107 110 165 9 q 47 465 47 214 q 107 829 47 718 q 307 954 166 940 q 385 956 332 956 l 400 956 q 463 954 438 956 q 663 840 605 940 m 471 1019 q 452 1067 452 1040 q 471 1114 452 1095 q 517 1133 490 1133 q 562 1114 543 1133 q 581 1067 581 1095 q 562 1019 581 1040 q 517 997 543 997 q 471 1019 491 997 m 208 1019 q 189 1067 189 1040 q 208 1114 189 1095 q 254 1133 227 1133 q 300 1114 281 1133 q 319 1067 319 1095 q 300 1019 319 1040 q 254 997 280 997 q 208 1019 229 997 z "},"×":{"ha":536,"x_min":34,"x_max":468,"o":"m 277 427 q 372 362 325 399 q 468 250 468 289 q 455 223 468 237 q 428 210 441 210 q 316 306 389 211 q 251 401 280 353 q 186 306 222 353 q 74 210 113 211 q 47 223 60 210 q 34 250 34 237 q 130 362 35 289 q 225 427 178 399 q 130 492 178 456 q 34 604 35 566 q 47 631 34 618 q 74 644 60 644 q 186 549 113 644 q 251 453 222 501 q 316 549 280 501 q 428 644 389 644 q 455 631 441 644 q 468 604 468 618 q 372 492 468 566 q 277 427 325 456 z "},"Ø":{"ha":814,"x_min":47,"x_max":722,"o":"m 623 889 q 663 840 646 868 q 722 484 722 735 q 663 120 722 231 q 463 -4 604 9 q 385 -7 437 -6 l 369 -7 q 307 -4 332 -7 q 233 11 267 0 l 193 -79 l 102 -79 l 159 49 q 107 110 127 74 q 47 465 47 214 q 107 829 47 718 q 307 954 166 940 q 385 956 332 956 l 400 956 q 463 954 438 956 q 552 933 513 949 l 577 990 l 668 990 l 623 889 m 208 159 l 514 849 q 450 875 487 869 q 393 878 430 878 l 381 878 q 313 873 336 878 q 205 789 237 859 q 163 497 163 703 l 163 472 q 208 159 165 252 m 570 770 l 269 92 q 320 75 292 79 q 376 71 340 71 l 389 71 q 456 76 434 72 q 565 160 532 91 q 607 452 607 247 l 607 477 q 570 770 605 675 z "},"Ù":{"ha":739,"x_min":47,"x_max":627,"o":"m 627 949 l 627 317 q 594 100 627 167 q 414 -4 549 8 q 353 -7 391 -7 l 321 -7 q 260 -4 283 -7 q 80 100 125 8 q 47 317 47 167 l 47 949 l 153 949 l 153 317 q 177 136 153 188 q 273 75 201 85 q 326 71 291 71 l 349 71 q 401 75 383 71 q 497 136 473 85 q 522 317 522 188 l 522 949 l 627 949 m 370 976 q 318 1035 344 1002 q 273 1120 273 1090 q 274 1128 273 1124 q 298 1143 277 1138 q 319 1146 309 1146 q 328 1145 323 1146 q 370 1084 349 1139 q 387 1036 377 1067 q 401 993 397 1002 l 370 976 z "},"Ú":{"ha":739,"x_min":47,"x_max":627,"o":"m 627 949 l 627 317 q 594 100 627 167 q 414 -4 549 8 q 353 -7 391 -7 l 321 -7 q 260 -4 283 -7 q 80 100 125 8 q 47 317 47 167 l 47 949 l 153 949 l 153 317 q 177 136 153 188 q 273 75 201 85 q 326 71 291 71 l 349 71 q 401 75 383 71 q 497 136 473 85 q 522 317 522 188 l 522 949 l 627 949 m 273 993 q 288 1036 277 1002 q 304 1084 297 1067 q 346 1145 326 1139 q 355 1146 351 1146 q 376 1143 365 1146 q 400 1128 397 1138 q 401 1120 401 1124 q 356 1035 401 1090 q 304 976 330 1002 l 273 993 z "},"Û":{"ha":739,"x_min":47,"x_max":627,"o":"m 627 949 l 627 317 q 594 100 627 167 q 414 -4 549 8 q 353 -7 391 -7 l 321 -7 q 260 -4 283 -7 q 80 100 125 8 q 47 317 47 167 l 47 949 l 153 949 l 153 317 q 177 136 153 188 q 273 75 201 85 q 326 71 291 71 l 349 71 q 401 75 383 71 q 497 136 473 85 q 522 317 522 188 l 522 949 l 627 949 m 478 1015 q 480 1011 480 1013 q 457 996 480 1002 q 427 990 444 992 l 337 1088 l 245 990 q 217 996 231 992 q 194 1011 194 1002 q 195 1015 194 1013 l 329 1153 l 345 1153 l 478 1015 z "},"Ü":{"ha":739,"x_min":47,"x_max":627,"o":"m 627 949 l 627 317 q 594 100 627 167 q 414 -4 549 8 q 353 -7 391 -7 l 321 -7 q 260 -4 283 -7 q 80 100 125 8 q 47 317 47 167 l 47 949 l 153 949 l 153 317 q 177 136 153 188 q 273 75 201 85 q 326 71 291 71 l 349 71 q 401 75 383 71 q 497 136 473 85 q 522 317 522 188 l 522 949 l 627 949 m 422 1019 q 404 1067 404 1040 q 422 1114 404 1095 q 469 1133 441 1133 q 514 1114 495 1133 q 533 1067 533 1095 q 514 1019 533 1040 q 469 997 494 997 q 422 1019 443 997 m 160 1019 q 141 1067 141 1040 q 160 1114 141 1095 q 206 1133 179 1133 q 252 1114 233 1133 q 271 1067 271 1095 q 252 1019 271 1040 q 206 997 232 997 q 160 1019 180 997 z "},"Ý":{"ha":764,"x_min":41,"x_max":682,"o":"m 682 949 l 414 387 l 414 0 l 309 0 l 309 387 l 41 949 l 154 949 l 357 489 l 366 489 l 569 949 l 682 949 m 298 993 q 312 1036 301 1002 q 328 1084 321 1067 q 370 1145 350 1139 q 380 1146 375 1146 q 401 1143 389 1146 q 425 1128 421 1138 q 425 1120 425 1124 q 380 1035 425 1090 q 328 976 355 1002 l 298 993 z "},"Þ":{"ha":612,"x_min":47,"x_max":530,"o":"m 153 814 l 262 814 q 460 751 395 814 q 530 557 523 689 q 530 530 530 543 q 474 345 530 411 q 216 255 398 255 q 153 258 192 255 l 153 -136 l 47 -136 l 47 1146 l 153 1146 l 153 814 m 153 328 q 214 323 183 323 q 361 364 310 323 q 422 527 422 414 q 378 699 422 648 q 228 750 333 750 l 153 750 l 153 328 z "},"ß":{"ha":690,"x_min":34,"x_max":588,"o":"m 34 0 l 34 600 q 126 888 34 803 q 317 956 200 956 q 477 899 414 956 q 544 732 544 837 q 484 597 544 665 q 416 516 418 524 q 415 504 415 510 q 435 457 415 481 q 460 430 443 448 q 490 401 483 409 q 588 197 588 301 q 530 48 588 102 q 363 -7 471 -7 q 226 14 283 -7 l 246 85 q 355 76 298 76 q 450 109 416 76 q 483 187 483 139 q 413 342 483 276 q 372 378 402 352 q 336 413 347 400 q 309 478 309 444 q 311 500 309 489 q 380 593 317 523 q 439 720 439 657 q 401 837 439 790 q 304 885 363 885 q 184 816 227 885 q 139 605 139 743 l 139 0 l 34 0 z "},"à":{"ha":601,"x_min":34,"x_max":499,"o":"m 263 807 q 211 865 237 833 q 166 951 166 920 q 167 960 166 955 q 191 974 170 968 q 212 977 202 977 q 221 976 216 977 q 263 915 241 969 q 279 867 270 897 q 294 824 290 833 l 263 807 m 390 328 q 219 321 264 328 q 150 288 166 313 q 135 224 138 269 q 134 196 134 210 q 142 122 134 155 q 209 63 156 63 q 267 76 234 63 q 389 132 283 83 l 390 328 m 492 107 q 499 12 492 61 l 410 0 q 395 50 401 12 q 394 73 394 58 q 249 9 301 31 q 165 -7 205 -7 q 130 -3 146 -7 q 52 58 70 8 q 34 224 34 108 q 48 307 34 271 q 123 378 71 363 q 390 396 191 396 l 390 520 q 384 584 390 570 q 358 606 378 599 q 308 611 340 611 q 278 610 294 611 q 81 580 201 607 l 57 649 q 337 685 217 685 q 471 638 437 685 q 492 533 492 609 l 492 107 z "},"á":{"ha":601,"x_min":34,"x_max":499,"o":"m 239 824 q 254 867 243 833 q 270 915 263 897 q 312 976 292 969 q 321 977 317 977 q 342 974 331 977 q 366 960 363 968 q 367 951 367 955 q 322 865 367 920 q 270 807 296 833 l 239 824 m 390 328 q 219 321 264 328 q 150 288 166 313 q 135 224 138 269 q 134 196 134 210 q 142 122 134 155 q 209 63 156 63 q 267 76 234 63 q 389 132 283 83 l 390 328 m 492 107 q 499 12 492 61 l 410 0 q 395 50 401 12 q 394 73 394 58 q 249 9 301 31 q 165 -7 205 -7 q 130 -3 146 -7 q 52 58 70 8 q 34 224 34 108 q 48 307 34 271 q 123 378 71 363 q 390 396 191 396 l 390 520 q 384 584 390 570 q 358 606 378 599 q 308 611 340 611 q 278 610 294 611 q 81 580 201 607 l 57 649 q 337 685 217 685 q 471 638 437 685 q 492 533 492 609 l 492 107 z "},"â":{"ha":601,"x_min":34,"x_max":499,"o":"m 408 839 q 410 835 410 837 q 387 820 410 826 q 357 814 373 816 l 267 911 l 175 814 q 146 820 160 816 q 123 835 123 826 q 124 839 123 837 l 258 977 l 275 977 l 408 839 m 390 328 q 219 321 264 328 q 150 288 166 313 q 135 224 138 269 q 134 196 134 210 q 142 122 134 155 q 209 63 156 63 q 267 76 234 63 q 389 132 283 83 l 390 328 m 492 107 q 499 12 492 61 l 410 0 q 395 50 401 12 q 394 73 394 58 q 249 9 301 31 q 165 -7 205 -7 q 130 -3 146 -7 q 52 58 70 8 q 34 224 34 108 q 48 307 34 271 q 123 378 71 363 q 390 396 191 396 l 390 520 q 384 584 390 570 q 358 606 378 599 q 308 611 340 611 q 278 610 294 611 q 81 580 201 607 l 57 649 q 337 685 217 685 q 471 638 437 685 q 492 533 492 609 l 492 107 z "},"ã":{"ha":601,"x_min":34,"x_max":499,"o":"m 471 894 q 451 852 464 875 q 394 795 425 808 q 342 786 369 786 q 320 787 332 786 q 267 808 290 792 q 212 848 267 808 q 168 867 185 867 l 163 867 q 141 854 150 865 q 130 829 136 846 q 119 806 123 811 q 104 798 113 798 l 102 798 q 64 807 79 800 q 83 848 70 826 q 140 905 109 892 q 191 916 165 916 q 214 913 202 916 q 267 893 244 909 q 321 853 267 892 q 366 833 349 833 l 371 833 q 393 847 384 836 q 404 872 398 855 q 415 895 411 890 q 429 903 421 903 l 431 903 q 471 894 454 901 m 390 328 q 219 321 264 328 q 150 288 166 313 q 135 224 138 269 q 134 196 134 210 q 142 122 134 155 q 209 63 156 63 q 267 76 234 63 q 389 132 283 83 l 390 328 m 492 107 q 499 12 492 61 l 410 0 q 395 50 401 12 q 394 73 394 58 q 249 9 301 31 q 165 -7 205 -7 q 130 -3 146 -7 q 52 58 70 8 q 34 224 34 108 q 48 307 34 271 q 123 378 71 363 q 390 396 191 396 l 390 520 q 384 584 390 570 q 358 606 378 599 q 308 611 340 611 q 278 610 294 611 q 81 580 201 607 l 57 649 q 337 685 217 685 q 471 638 437 685 q 492 533 492 609 l 492 107 z "},"ä":{"ha":604,"x_min":34,"x_max":502,"o":"m 379 793 q 358 847 358 817 q 379 898 358 877 q 431 919 400 919 q 481 898 460 919 q 502 847 502 877 q 481 793 502 817 q 431 768 459 768 q 379 793 401 768 m 108 793 q 87 847 87 817 q 108 898 87 877 q 159 919 129 919 q 210 898 189 919 q 231 847 231 877 q 210 793 231 817 q 159 768 188 768 q 108 793 130 768 m 390 328 q 219 321 264 328 q 150 288 166 313 q 135 224 138 269 q 134 196 134 210 q 142 122 134 155 q 209 63 156 63 q 267 76 234 63 q 389 132 283 83 l 390 328 m 492 107 q 499 12 492 61 l 410 0 q 395 50 401 12 q 394 73 394 58 q 249 9 301 31 q 165 -7 205 -7 q 130 -3 146 -7 q 52 58 70 8 q 34 224 34 108 q 48 307 34 271 q 123 378 71 363 q 390 396 191 396 l 390 520 q 384 584 390 570 q 358 606 378 599 q 308 611 340 611 q 278 610 294 611 q 81 580 201 607 l 57 649 q 337 685 217 685 q 471 638 437 685 q 492 533 492 609 l 492 107 z "},"å":{"ha":618,"x_min":34,"x_max":499,"o":"m 390 328 q 219 321 264 328 q 150 288 166 313 q 135 224 138 269 q 134 196 134 210 q 142 122 134 155 q 209 63 156 63 q 267 76 234 63 q 389 132 283 83 l 390 328 m 492 107 q 499 12 492 61 l 410 0 q 395 50 401 12 q 394 73 394 58 q 249 9 301 31 q 165 -7 205 -7 q 130 -3 146 -7 q 52 58 70 8 q 34 224 34 108 q 48 307 34 271 q 123 378 71 363 q 390 396 191 396 l 390 520 q 384 584 390 570 q 358 606 378 599 q 308 611 340 611 q 278 610 294 611 q 81 580 201 607 l 57 649 q 337 685 217 685 q 471 638 437 685 q 492 533 492 609 l 492 107 m 267 816 q 302 831 288 816 q 317 867 317 846 q 302 903 317 888 q 267 918 288 918 q 231 903 245 918 q 216 867 216 888 q 231 831 216 846 q 267 816 245 816 m 267 951 q 326 926 302 951 q 351 867 351 902 q 326 807 351 831 q 267 782 302 782 q 207 807 231 782 q 182 867 182 831 q 207 926 182 902 q 267 951 231 951 z "},"æ":{"ha":911,"x_min":34,"x_max":871,"o":"m 391 308 q 280 307 321 307 q 219 306 239 307 q 150 276 170 302 q 135 224 138 258 q 134 196 134 210 q 142 122 134 155 q 209 63 156 63 q 267 76 234 63 q 396 132 283 83 l 391 308 m 786 372 q 758 542 783 489 q 643 612 725 612 q 537 570 572 612 q 486 372 490 513 l 786 372 m 439 86 q 319 18 382 47 q 189 -7 264 -7 q 165 -7 178 -7 q 130 -3 146 -7 q 52 58 70 8 q 34 224 34 108 q 43 307 34 279 q 106 366 60 349 q 198 380 145 380 q 397 370 277 380 l 397 520 q 392 576 397 559 q 363 608 385 604 q 315 614 342 614 q 81 578 230 614 l 57 643 q 330 684 184 676 q 349 685 340 685 l 355 685 q 412 680 385 685 q 455 649 435 673 q 477 588 475 625 q 648 685 540 685 l 661 685 q 838 564 787 680 q 871 369 871 488 q 869 304 871 338 l 486 304 q 528 116 486 163 q 630 65 557 73 q 659 64 644 64 q 745 73 696 64 q 833 101 802 85 l 869 47 q 655 -7 766 -7 q 616 -5 635 -7 q 440 85 491 5 q 439 86 439 85 z "},"ç":{"ha":626,"x_min":34,"x_max":524,"o":"m 524 76 q 254 -7 415 -7 q 85 75 136 -7 q 34 339 34 155 q 85 600 34 522 q 250 684 136 677 q 270 685 260 685 l 284 685 q 417 671 362 685 q 500 635 475 655 l 456 580 q 287 612 389 612 l 267 612 q 174 568 202 612 q 136 346 136 509 q 174 120 136 182 q 267 72 203 72 q 480 125 387 72 l 524 76 m 279 -43 l 280 -43 q 331 -69 307 -45 q 357 -163 357 -96 q 335 -236 357 -208 q 229 -273 308 -273 q 202 -273 219 -273 l 202 -225 l 220 -225 q 294 -204 274 -225 q 308 -157 308 -188 l 308 -155 q 290 -94 308 -117 q 244 -76 271 -76 l 227 -76 l 240 0 l 283 0 l 279 -43 z "},"è":{"ha":614,"x_min":34,"x_max":515,"o":"m 430 372 q 402 542 427 489 q 287 612 369 612 q 188 570 222 612 q 136 372 141 513 l 430 372 m 136 304 q 179 116 136 163 q 274 65 208 73 q 302 64 288 64 q 389 73 340 64 q 477 101 446 85 l 513 47 q 299 -7 410 -7 q 260 -5 279 -7 q 91 85 142 5 q 34 332 34 158 q 113 606 34 511 q 292 685 177 685 l 304 685 q 482 564 431 680 q 515 369 515 488 q 513 304 515 338 l 136 304 m 271 808 q 219 866 245 833 q 174 951 174 921 q 175 960 174 956 q 199 975 178 970 q 220 978 210 978 q 229 977 224 978 q 271 916 250 970 q 288 867 278 898 q 302 824 298 833 l 271 808 z "},"é":{"ha":614,"x_min":34,"x_max":515,"o":"m 430 372 q 402 542 427 489 q 287 612 369 612 q 188 570 222 612 q 136 372 141 513 l 430 372 m 136 304 q 179 116 136 163 q 274 65 208 73 q 302 64 288 64 q 389 73 340 64 q 477 101 446 85 l 513 47 q 299 -7 410 -7 q 260 -5 279 -7 q 91 85 142 5 q 34 332 34 158 q 113 606 34 511 q 292 685 177 685 l 304 685 q 482 564 431 680 q 515 369 515 488 q 513 304 515 338 l 136 304 m 201 824 q 216 867 205 833 q 232 915 225 898 q 274 977 254 970 q 283 977 279 977 q 304 975 293 977 q 328 960 325 969 q 329 951 329 956 q 284 866 329 921 q 232 807 258 833 l 201 824 z "},"ê":{"ha":614,"x_min":34,"x_max":515,"o":"m 430 372 q 402 542 427 489 q 287 612 369 612 q 188 570 222 612 q 136 372 141 513 l 430 372 m 136 304 q 179 116 136 163 q 274 65 208 73 q 302 64 288 64 q 389 73 340 64 q 477 101 446 85 l 513 47 q 299 -7 410 -7 q 260 -5 279 -7 q 91 85 142 5 q 34 332 34 158 q 113 606 34 511 q 292 685 177 685 l 304 685 q 482 564 431 680 q 515 369 515 488 q 513 304 515 338 l 136 304 m 416 839 q 418 835 418 837 q 395 820 418 826 q 365 814 381 816 l 275 911 l 183 814 q 155 820 168 816 q 132 835 132 826 q 132 839 132 837 l 267 977 l 283 977 l 416 839 z "},"ë":{"ha":607,"x_min":34,"x_max":515,"o":"m 428 372 q 402 542 427 489 q 287 612 370 612 q 188 570 223 612 q 136 372 141 513 l 428 372 m 136 305 q 179 110 136 163 q 274 66 208 73 q 339 62 309 62 q 455 83 408 62 l 491 29 q 306 -7 404 -7 q 260 -5 283 -7 q 92 85 142 5 q 34 332 34 158 q 113 606 34 517 q 292 685 177 685 l 304 685 q 483 564 432 680 q 515 370 515 488 q 513 305 515 339 l 136 305 m 418 887 q 458 867 441 887 q 475 825 475 848 q 458 785 475 801 q 418 768 441 768 q 379 785 395 768 q 363 825 363 801 q 379 867 363 848 q 418 887 396 887 m 172 887 q 212 867 195 887 q 228 825 228 848 q 212 785 228 801 q 172 768 195 768 q 132 785 149 768 q 116 825 116 801 q 132 867 116 848 q 172 887 149 887 z "},"ì":{"ha":263,"x_min":7,"x_max":147,"o":"m 49 678 l 147 678 l 147 0 l 49 0 l 49 678 m 104 807 q 52 866 77 833 q 7 951 7 921 q 7 960 7 956 q 31 975 11 969 q 52 977 43 977 q 62 977 57 977 q 104 915 82 970 q 120 867 111 898 q 134 824 131 833 l 104 807 z "},"í":{"ha":263,"x_min":49,"x_max":189,"o":"m 49 678 l 147 678 l 147 0 l 49 0 l 49 678 m 62 824 q 75 867 64 833 q 92 915 85 898 q 134 977 113 970 q 144 977 138 977 q 165 975 153 977 q 188 960 185 969 q 189 951 189 956 q 144 866 189 921 q 92 807 119 833 l 62 824 z "},"î":{"ha":422,"x_min":34,"x_max":320,"o":"m 127 678 l 226 678 l 226 0 l 127 0 l 127 678 m 318 839 q 320 835 320 837 q 297 820 320 826 q 267 814 283 816 l 177 911 l 85 814 q 57 820 71 816 q 34 835 34 826 q 35 839 34 837 l 169 977 l 185 977 l 318 839 z "},"ï":{"ha":528,"x_min":34,"x_max":426,"o":"m 180 678 l 279 678 l 279 0 l 180 0 l 180 678 m 315 836 q 296 884 296 857 q 315 930 296 911 q 361 949 334 949 q 407 930 388 949 q 426 884 426 911 q 407 836 426 857 q 361 814 387 814 q 315 836 336 814 m 53 836 q 34 884 34 857 q 53 930 34 911 q 99 949 72 949 q 144 930 125 949 q 163 884 163 911 q 144 836 163 857 q 99 814 125 814 q 53 836 73 814 z "},"ð":{"ha":656,"x_min":34,"x_max":555,"o":"m 463 375 q 407 532 462 460 q 283 604 355 597 q 268 603 276 604 q 175 551 205 598 q 136 338 136 489 q 182 115 136 178 q 283 70 216 70 q 415 117 374 70 q 463 304 463 172 l 463 375 m 474 787 q 555 339 555 636 q 492 75 555 155 q 284 -7 429 -7 q 34 339 34 -7 q 88 600 34 519 q 254 676 140 676 q 465 545 391 676 q 361 810 439 718 l 285 765 l 250 827 l 311 863 q 203 949 272 898 l 227 1010 q 378 901 302 970 l 444 939 l 479 878 l 430 849 q 474 787 458 817 z "},"ñ":{"ha":647,"x_min":34,"x_max":542,"o":"m 370 685 q 513 631 475 685 q 542 543 538 603 l 542 0 l 440 0 l 440 474 q 424 576 439 554 q 381 604 409 597 q 335 608 365 608 q 307 608 322 608 q 143 573 226 603 l 143 0 l 41 0 l 41 608 q 34 672 41 635 l 125 678 q 139 645 134 662 q 370 685 288 685 m 492 894 q 472 852 485 875 q 415 795 446 808 q 363 786 390 786 q 341 787 353 786 q 288 808 311 792 q 233 848 288 808 q 189 867 206 867 l 184 867 q 162 854 171 865 q 151 829 157 846 q 140 806 144 811 q 125 798 134 798 l 123 798 q 85 807 100 800 q 104 848 91 826 q 161 905 130 892 q 212 916 186 916 q 235 913 223 916 q 288 893 265 909 q 342 853 288 892 q 387 833 370 833 l 392 833 q 414 847 405 836 q 425 872 419 855 q 436 895 432 890 q 450 903 442 903 l 452 903 q 492 894 475 901 z "},"ò":{"ha":692,"x_min":34,"x_max":601,"o":"m 372 62 q 460 121 436 80 q 493 329 493 178 l 493 341 q 456 559 491 502 q 366 616 431 600 q 326 618 351 618 l 314 618 q 263 615 282 618 q 174 557 198 597 q 142 349 142 500 l 142 337 q 179 118 144 176 q 269 62 203 78 q 320 59 288 59 q 372 62 353 60 m 382 683 q 551 601 503 673 q 601 346 601 526 q 551 84 601 164 q 382 -5 500 5 q 317 -7 361 -7 q 252 -5 272 -7 q 84 77 132 5 q 34 332 34 152 q 84 594 34 514 q 252 683 134 673 q 317 685 274 685 q 382 683 362 685 m 268 807 q 216 866 241 833 q 171 951 171 921 q 172 960 171 956 q 195 975 175 969 q 216 977 207 977 q 226 977 221 977 q 268 915 246 970 q 284 867 275 898 q 298 824 295 833 l 268 807 z "},"ó":{"ha":692,"x_min":34,"x_max":601,"o":"m 372 62 q 460 121 436 80 q 493 329 493 178 l 493 341 q 456 559 491 502 q 366 616 431 600 q 326 618 351 618 l 314 618 q 263 615 282 618 q 174 557 198 597 q 142 349 142 500 l 142 337 q 179 118 144 176 q 269 62 203 78 q 320 59 288 59 q 372 62 353 60 m 382 683 q 551 601 503 673 q 601 346 601 526 q 551 84 601 164 q 382 -5 500 5 q 317 -7 361 -7 q 252 -5 272 -7 q 84 77 132 5 q 34 332 34 152 q 84 594 34 514 q 252 683 134 673 q 317 685 274 685 q 382 683 362 685 m 244 824 q 258 867 248 833 q 275 915 268 898 q 317 977 296 970 q 326 977 321 977 q 347 975 336 977 q 371 960 368 969 q 372 951 372 956 q 327 866 372 921 q 275 807 301 833 l 244 824 z "},"ô":{"ha":699,"x_min":34,"x_max":601,"o":"m 372 62 q 460 121 436 80 q 493 329 493 178 l 493 341 q 456 559 491 502 q 366 616 431 600 q 326 618 351 618 l 314 618 q 263 615 282 618 q 174 557 198 597 q 142 349 142 500 l 142 337 q 179 118 144 176 q 269 62 203 78 q 320 59 288 59 q 372 62 353 60 m 382 683 q 551 601 503 673 q 601 346 601 526 q 551 84 601 164 q 382 -5 500 5 q 317 -7 361 -7 q 252 -5 272 -7 q 84 77 132 5 q 34 332 34 152 q 84 594 34 514 q 252 683 134 673 q 317 685 274 685 q 382 683 362 685 m 458 839 q 460 835 460 837 q 437 820 460 826 q 408 814 424 816 l 317 911 l 226 814 q 197 820 211 816 q 174 835 174 826 q 175 839 174 837 l 309 977 l 326 977 l 458 839 z "},"õ":{"ha":703,"x_min":34,"x_max":601,"o":"m 372 62 q 460 121 436 80 q 493 329 493 178 l 493 341 q 456 559 491 502 q 366 616 431 600 q 326 618 351 618 l 314 618 q 263 615 282 618 q 174 557 198 597 q 142 349 142 500 l 142 337 q 179 118 144 176 q 269 62 203 78 q 320 59 288 59 q 372 62 353 60 m 382 683 q 551 601 503 673 q 601 346 601 526 q 551 84 601 164 q 382 -5 500 5 q 317 -7 361 -7 q 252 -5 272 -7 q 84 77 132 5 q 34 332 34 152 q 84 594 34 514 q 252 683 134 673 q 317 685 274 685 q 382 683 362 685 m 521 895 q 501 852 514 875 q 445 796 476 808 q 393 786 419 786 q 371 788 382 786 q 317 808 340 793 q 262 848 319 807 q 218 868 235 868 q 213 867 216 868 q 192 854 201 865 q 180 829 186 846 q 169 806 173 812 q 155 798 163 798 l 153 798 q 114 807 130 800 q 134 849 121 827 q 190 905 159 893 q 242 916 216 916 q 264 913 253 916 q 317 894 294 909 q 372 853 316 895 q 417 833 399 833 q 422 834 419 833 q 443 848 434 836 q 455 872 448 855 q 466 895 462 890 q 480 904 472 904 l 482 904 q 521 895 505 901 z "},"ö":{"ha":699,"x_min":34,"x_max":601,"o":"m 372 62 q 460 121 436 80 q 493 329 493 178 l 493 341 q 456 559 491 502 q 366 616 431 600 q 326 618 351 618 l 314 618 q 263 615 282 618 q 174 557 198 597 q 142 349 142 500 l 142 337 q 179 118 144 176 q 269 62 203 78 q 320 59 288 59 q 372 62 353 60 m 382 683 q 551 601 503 673 q 601 346 601 526 q 551 84 601 164 q 382 -5 500 5 q 317 -7 361 -7 q 252 -5 272 -7 q 84 77 132 5 q 34 332 34 152 q 84 594 34 514 q 252 683 134 673 q 317 685 274 685 q 382 683 362 685 m 403 790 q 384 839 384 812 q 403 885 384 866 q 449 904 422 904 q 494 885 475 904 q 513 839 513 866 q 494 790 513 812 q 449 768 475 768 q 403 790 423 768 m 140 790 q 121 839 121 812 q 140 885 121 866 q 186 904 159 904 q 232 885 213 904 q 251 839 251 866 q 232 790 251 812 q 186 768 212 768 q 140 790 161 768 z "},"÷":{"ha":712,"x_min":34,"x_max":644,"o":"m 34 415 l 644 415 l 644 323 l 34 323 l 34 415 m 340 100 q 288 125 311 100 q 267 179 267 149 q 288 230 267 209 q 340 251 309 251 q 390 230 369 251 q 411 179 411 209 q 390 125 411 149 q 340 100 368 100 m 340 487 q 288 511 311 487 q 267 566 267 535 q 288 616 267 595 q 340 637 309 637 q 390 616 369 637 q 411 566 411 595 q 390 511 411 535 q 340 487 368 487 z "},"ø":{"ha":699,"x_min":34,"x_max":601,"o":"m 386 610 q 366 616 376 614 q 326 618 351 618 l 314 618 q 263 615 282 618 q 174 557 198 597 q 142 349 142 500 l 142 337 q 173 130 144 191 l 386 610 m 455 561 l 237 72 q 269 62 252 66 q 320 59 288 59 q 372 62 353 60 q 460 121 436 80 q 493 329 493 178 l 493 341 q 456 559 491 502 q 455 561 455 560 m 416 679 l 509 888 l 600 888 l 495 652 q 551 601 530 632 q 601 346 601 526 q 551 84 601 164 q 382 -5 500 5 q 317 -7 361 -7 q 252 -5 272 -7 q 207 1 228 -3 l 125 -181 l 35 -181 l 130 33 q 84 77 102 51 q 34 332 34 152 q 84 594 34 514 q 252 683 134 673 q 317 685 274 685 q 382 683 362 685 q 416 679 400 682 z "},"ù":{"ha":657,"x_min":34,"x_max":555,"o":"m 547 101 q 555 6 547 58 l 466 0 q 452 56 455 18 q 450 76 451 64 q 357 28 417 55 q 197 -7 281 -7 q 57 58 90 -7 q 34 235 34 98 l 34 678 l 135 678 l 135 235 q 151 106 135 139 q 220 68 168 71 l 229 68 q 353 98 288 68 q 446 150 412 122 l 446 678 l 547 678 l 547 101 m 328 807 q 275 866 301 833 q 231 951 231 921 q 232 960 231 956 q 255 975 235 969 q 276 977 267 977 q 286 977 281 977 q 328 915 307 970 q 345 867 335 898 q 359 824 355 833 l 328 807 z "},"ú":{"ha":657,"x_min":34,"x_max":555,"o":"m 547 101 q 555 6 547 58 l 466 0 q 452 56 455 18 q 450 76 451 64 q 357 28 417 55 q 197 -7 281 -7 q 57 58 90 -7 q 34 235 34 98 l 34 678 l 135 678 l 135 235 q 151 106 135 139 q 220 68 168 71 l 229 68 q 353 98 288 68 q 446 150 412 122 l 446 678 l 547 678 l 547 101 m 231 824 q 245 867 234 833 q 262 915 254 898 q 304 977 283 970 q 313 977 308 977 q 334 975 322 977 q 357 960 355 969 q 359 951 359 956 q 314 866 359 921 q 261 807 288 833 l 231 824 z "},"û":{"ha":667,"x_min":34,"x_max":555,"o":"m 547 101 q 555 6 547 58 l 466 0 q 452 56 455 18 q 450 76 451 64 q 357 28 417 55 q 197 -7 281 -7 q 57 58 90 -7 q 34 235 34 98 l 34 678 l 135 678 l 135 235 q 151 106 135 139 q 220 68 168 71 l 229 68 q 353 98 288 68 q 446 150 412 122 l 446 678 l 547 678 l 547 101 m 436 839 q 438 835 438 837 q 415 820 438 826 q 385 814 401 816 l 295 911 l 203 814 q 175 820 189 816 q 152 835 152 826 q 153 839 152 837 l 287 977 l 303 977 l 436 839 z "},"ü":{"ha":667,"x_min":34,"x_max":555,"o":"m 547 101 q 555 6 547 58 l 466 0 q 452 56 455 18 q 450 76 451 64 q 357 28 417 55 q 197 -7 281 -7 q 57 58 90 -7 q 34 235 34 98 l 34 678 l 135 678 l 135 235 q 151 106 135 139 q 220 68 168 71 l 229 68 q 353 98 288 68 q 446 150 412 122 l 446 678 l 547 678 l 547 101 m 380 790 q 361 839 361 812 q 380 885 361 866 q 427 904 399 904 q 472 885 453 904 q 491 839 491 866 q 472 790 491 812 q 427 768 452 768 q 380 790 401 768 m 118 790 q 99 839 99 812 q 118 885 99 866 q 164 904 137 904 q 210 885 191 904 q 229 839 229 866 q 210 790 229 812 q 164 768 190 768 q 118 790 138 768 z "},"ý":{"ha":636,"x_min":31,"x_max":548,"o":"m 548 678 q 329 -190 404 60 q 260 -355 290 -318 q 138 -414 214 -414 q 81 -407 100 -414 l 85 -332 q 112 -334 97 -334 l 122 -334 q 189 -305 162 -332 q 246 -161 216 -277 q 286 -7 262 -99 q 258 4 268 -1 q 200 77 214 26 q 31 678 158 231 l 138 678 q 277 113 241 255 q 307 71 287 76 q 456 678 376 349 l 548 678 m 226 824 q 239 867 229 833 q 256 915 249 898 q 298 977 277 970 q 308 977 302 977 q 329 975 317 977 q 352 960 349 969 q 353 951 353 956 q 309 866 353 921 q 256 807 283 833 l 226 824 z "},"þ":{"ha":659,"x_min":34,"x_max":568,"o":"m 431 111 q 466 340 466 170 l 568 340 q 511 77 568 161 q 347 -6 458 -1 q 320 -7 334 -7 q 141 27 223 -7 l 141 -407 l 34 -407 l 34 340 l 141 340 l 141 111 q 226 77 171 94 q 321 60 281 60 q 340 61 331 60 q 431 111 407 68 m 34 339 l 34 1086 l 141 1086 l 141 652 q 320 686 223 686 q 347 685 334 686 q 511 602 458 680 q 568 339 568 518 l 466 339 q 431 568 466 509 q 340 618 407 611 q 321 619 331 619 q 226 602 281 619 q 141 568 171 585 l 141 339 l 34 339 z "},"ÿ":{"ha":636,"x_min":31,"x_max":548,"o":"m 548 678 q 329 -190 404 60 q 260 -355 290 -318 q 138 -414 214 -414 q 81 -407 100 -414 l 85 -332 q 112 -334 97 -334 l 122 -334 q 189 -305 162 -332 q 246 -161 216 -277 q 286 -7 262 -99 q 258 4 268 -1 q 200 77 214 26 q 31 678 158 231 l 138 678 q 277 113 241 255 q 307 71 287 76 q 456 678 376 349 l 548 678 m 375 790 q 356 839 356 812 q 375 885 356 866 q 421 904 394 904 q 467 885 448 904 q 486 839 486 866 q 467 790 486 812 q 421 768 447 768 q 375 790 395 768 m 113 790 q 94 839 94 812 q 113 885 94 866 q 159 904 132 904 q 204 885 185 904 q 223 839 223 866 q 204 790 223 812 q 159 768 184 768 q 113 790 133 768 z "},"ı":{"ha":234,"x_min":34,"x_max":132,"o":"m 34 678 l 132 678 l 132 0 l 34 0 l 34 678 z "},"ˆ":{"ha":422,"x_min":34,"x_max":320,"o":"m 318 1008 q 320 1004 320 1006 q 297 989 320 996 q 267 983 283 985 l 177 1081 l 85 983 q 57 989 71 985 q 34 1004 34 996 q 35 1008 34 1006 l 169 1146 l 185 1146 l 318 1008 z "},"ˇ":{"ha":422,"x_min":34,"x_max":320,"o":"m 185 963 l 169 963 l 35 1101 q 34 1105 34 1103 q 57 1120 34 1114 q 85 1126 71 1124 l 177 1028 l 267 1126 q 297 1120 283 1124 q 320 1105 320 1114 q 318 1101 320 1103 l 185 963 z "},"ˉ":{"ha":590,"x_min":47,"x_max":488,"o":"m 47 932 l 488 932 l 488 831 l 47 831 l 47 932 z "},"˘":{"ha":461,"x_min":34,"x_max":373,"o":"m 203 850 q 275 880 245 850 q 305 951 305 909 l 373 951 q 323 831 373 881 q 203 789 274 789 q 83 831 133 789 q 34 951 34 881 l 102 951 q 132 880 102 909 q 203 850 161 850 z "},"˙":{"ha":265,"x_min":34,"x_max":163,"o":"m 53 790 q 34 839 34 812 q 53 885 34 866 q 99 904 72 904 q 144 885 125 904 q 163 839 163 866 q 144 790 163 812 q 99 768 125 768 q 53 790 73 768 z "},"˚":{"ha":271,"x_min":34,"x_max":203,"o":"m 119 983 q 155 998 140 983 q 170 1034 170 1013 q 155 1070 170 1055 q 119 1085 140 1085 q 83 1070 98 1085 q 68 1034 68 1055 q 83 998 68 1013 q 119 983 98 983 m 119 1119 q 178 1094 154 1119 q 203 1034 203 1069 q 178 975 203 999 q 119 949 154 949 q 59 975 83 949 q 34 1034 34 999 q 59 1094 34 1069 q 119 1119 83 1119 z "},"˛":{"ha":298,"x_min":27,"x_max":204,"o":"m 95 -168 q 125 -239 95 -210 q 204 -269 155 -269 l 204 -337 q 70 -288 126 -337 q 27 -168 27 -238 q 70 -47 27 -97 q 197 2 126 2 l 197 -59 q 125 -89 155 -59 q 95 -168 95 -119 z "},"˜":{"ha":762,"x_min":47,"x_max":660,"o":"m 602 463 q 660 448 635 458 q 631 385 650 419 q 545 300 592 319 q 467 285 507 285 q 434 288 451 285 q 353 318 388 295 q 271 378 356 317 q 204 408 231 408 q 197 408 200 408 q 165 387 178 405 q 146 350 157 376 q 130 315 136 323 q 109 302 121 302 l 106 302 q 47 317 72 307 q 77 380 58 346 q 162 465 115 446 q 240 480 200 480 q 273 477 256 480 q 354 447 319 470 q 436 387 351 448 q 503 357 477 357 q 511 357 507 357 q 543 378 530 360 q 561 415 551 389 q 577 450 571 441 q 598 463 586 463 l 602 463 z "},"˝":{"ha":694,"x_min":0,"x_max":439,"o":"m 0 774 q 24 848 5 791 q 53 931 41 901 q 125 1037 90 1025 q 142 1038 133 1038 q 178 1034 157 1038 q 218 1008 213 1025 q 220 994 220 1001 q 143 846 220 941 q 52 745 98 790 l 0 774 m 220 774 q 244 848 225 791 q 273 931 260 901 q 345 1037 309 1025 q 361 1038 353 1038 q 397 1034 377 1038 q 438 1008 433 1025 q 439 994 439 1001 q 363 846 439 941 q 272 745 318 790 l 220 774 z "},"–":{"ha":868,"x_min":47,"x_max":766,"o":"m 47 415 l 766 415 l 766 327 l 47 327 l 47 415 z "},"—":{"ha":1072,"x_min":47,"x_max":970,"o":"m 47 412 l 970 412 l 970 327 l 47 327 l 47 412 z "},"‘":{"ha":242,"x_min":47,"x_max":195,"o":"m 134 820 q 178 800 161 820 q 195 750 195 780 q 174 701 195 721 q 125 680 154 680 q 73 697 96 680 q 48 743 51 716 q 47 758 47 750 q 60 825 47 790 q 100 896 75 863 q 145 941 122 926 q 168 949 159 949 q 178 945 174 949 q 178 943 178 945 q 169 921 178 938 q 156 901 165 914 q 141 879 145 885 q 121 838 124 851 q 120 831 120 834 q 132 820 120 820 l 134 820 z "},"’":{"ha":242,"x_min":47,"x_max":195,"o":"m 109 810 q 64 830 81 810 q 47 880 47 849 q 68 929 47 909 q 117 949 88 949 q 169 932 146 949 q 194 886 191 913 q 195 872 195 880 q 182 804 195 840 q 142 734 168 767 q 97 689 120 704 q 75 680 83 680 q 64 684 68 680 q 64 686 64 685 q 73 709 64 692 q 87 729 77 715 q 101 751 97 745 q 121 791 118 779 q 122 799 122 795 q 111 810 122 810 l 109 810 z "},"‚":{"ha":242,"x_min":47,"x_max":195,"o":"m 109 2 q 64 22 81 2 q 47 72 47 42 q 68 121 47 101 q 117 142 88 142 q 169 125 146 142 q 194 79 191 106 q 195 64 195 72 q 182 -3 195 32 q 142 -74 168 -41 q 97 -119 120 -104 q 75 -127 83 -127 q 64 -123 68 -127 q 64 -121 64 -123 q 73 -99 64 -116 q 87 -79 77 -92 q 101 -57 97 -63 q 121 -16 118 -29 q 122 -9 122 -12 q 111 2 122 2 l 109 2 z "},"“":{"ha":463,"x_min":47,"x_max":415,"o":"m 354 820 q 398 800 381 820 q 415 750 415 780 q 395 701 415 721 q 345 680 374 680 q 294 697 316 680 q 269 743 271 716 q 268 758 268 750 q 281 825 268 790 q 320 896 295 863 q 366 941 343 926 q 389 949 380 949 q 398 945 394 949 q 399 943 399 945 q 389 921 399 938 q 376 901 385 914 q 361 879 366 885 q 341 838 345 851 q 340 831 340 834 q 352 820 340 820 l 354 820 m 134 820 q 178 800 161 820 q 195 750 195 780 q 174 701 195 721 q 125 680 154 680 q 73 697 96 680 q 48 743 51 716 q 47 758 47 750 q 60 825 47 790 q 100 896 75 863 q 145 941 122 926 q 168 949 159 949 q 178 945 174 949 q 178 943 178 945 q 169 921 178 938 q 156 901 165 914 q 141 879 145 885 q 121 838 124 851 q 120 831 120 834 q 132 820 120 820 l 134 820 z "},"”":{"ha":463,"x_min":47,"x_max":415,"o":"m 109 810 q 64 830 81 810 q 47 880 47 849 q 68 929 47 909 q 117 949 88 949 q 169 932 146 949 q 194 886 191 913 q 195 872 195 880 q 182 804 195 840 q 142 734 168 767 q 97 689 120 704 q 75 680 83 680 q 64 684 68 680 q 64 686 64 685 q 73 709 64 692 q 87 729 77 715 q 101 751 97 745 q 121 791 118 779 q 122 799 122 795 q 111 810 122 810 l 109 810 m 329 810 q 285 830 302 810 q 267 880 267 849 q 288 929 267 909 q 338 949 309 949 q 389 932 368 949 q 414 886 412 913 q 415 872 415 880 q 402 804 415 840 q 363 734 389 767 q 317 689 340 704 q 295 680 304 680 q 285 684 289 680 q 284 686 284 685 q 294 709 284 692 q 307 729 298 715 q 321 751 317 745 q 342 791 339 779 q 343 799 343 795 q 332 810 343 810 l 329 810 z "},"„":{"ha":463,"x_min":47,"x_max":415,"o":"m 109 22 q 64 43 81 22 q 47 92 47 62 q 68 142 47 121 q 117 162 88 162 q 169 145 146 162 q 194 99 191 126 q 195 85 195 92 q 182 18 195 52 q 142 -54 168 -20 q 97 -98 120 -83 q 75 -107 83 -107 q 64 -103 68 -107 q 64 -100 64 -102 q 73 -79 64 -96 q 87 -58 77 -72 q 101 -37 97 -43 q 121 4 118 -9 q 122 12 122 8 q 111 22 122 22 l 109 22 m 329 22 q 285 43 302 22 q 267 92 267 62 q 288 142 267 121 q 338 162 309 162 q 389 145 368 162 q 414 99 412 126 q 415 85 415 92 q 402 18 415 52 q 363 -54 389 -20 q 317 -98 340 -83 q 295 -107 304 -107 q 285 -103 289 -107 q 284 -100 284 -102 q 294 -79 284 -96 q 307 -58 298 -72 q 321 -37 317 -43 q 342 4 339 -9 q 343 12 343 8 q 332 22 343 22 l 329 22 z "},"†":{"ha":665,"x_min":34,"x_max":576,"o":"m 253 699 l 253 949 l 358 949 l 358 699 l 576 699 l 576 604 l 358 604 l 358 0 l 253 0 l 253 604 l 34 604 l 34 699 l 253 699 z "},"‡":{"ha":665,"x_min":34,"x_max":576,"o":"m 253 604 l 34 604 l 34 699 l 253 699 l 253 949 l 358 949 l 358 699 l 576 699 l 576 604 l 358 604 l 358 346 l 576 346 l 576 251 l 358 251 l 358 0 l 253 0 l 253 251 l 34 251 l 34 346 l 253 346 l 253 604 z "},"•":{"ha":441,"x_min":47,"x_max":353,"o":"m 200 515 q 308 471 263 515 q 353 363 353 426 q 308 255 353 300 q 200 210 263 210 q 92 255 137 210 q 47 363 47 300 q 92 471 47 426 q 200 515 137 515 z "},"…":{"ha":841,"x_min":47,"x_max":739,"o":"m 120 -7 q 68 18 91 -7 q 47 72 47 41 q 68 123 47 102 q 120 144 90 144 q 170 123 149 144 q 191 72 191 102 q 170 18 191 41 q 120 -7 149 -7 m 390 -7 q 338 18 361 -7 q 317 72 317 41 q 338 123 317 102 q 390 144 359 144 q 440 123 419 144 q 461 72 461 102 q 440 18 461 41 q 390 -7 418 -7 m 668 -7 q 616 18 639 -7 q 595 72 595 41 q 616 123 595 102 q 668 144 637 144 q 718 123 697 144 q 739 72 739 102 q 718 18 739 41 q 668 -7 696 -7 z "},"‹":{"ha":389,"x_min":34,"x_max":321,"o":"m 127 345 l 321 86 q 290 58 307 71 q 254 40 267 40 q 245 44 248 40 q 34 345 123 162 q 245 646 123 528 q 254 650 248 650 q 290 633 267 650 q 321 604 307 619 l 127 345 z "},"›":{"ha":390,"x_min":34,"x_max":322,"o":"m 34 608 q 65 634 48 622 q 101 650 88 650 q 111 646 107 650 q 322 368 233 538 q 111 91 233 199 q 101 87 107 87 q 65 103 88 87 q 34 130 48 115 l 228 368 l 34 608 z "},"⁄":{"ha":749,"x_min":34,"x_max":667,"o":"m 667 949 l 125 -120 l 34 -120 l 576 949 l 667 949 z "},"∕":{"ha":749,"x_min":34,"x_max":667,"o":"m 667 949 l 125 -120 l 34 -120 l 576 949 l 667 949 z "},"₣":{"ha":778,"x_min":31,"x_max":676,"o":"m 170 135 l 170 949 l 676 949 l 676 885 l 275 885 l 275 558 l 635 558 l 635 494 l 275 494 l 275 135 l 417 135 l 417 47 l 275 47 l 275 -136 l 170 -136 l 170 47 l 31 47 l 31 135 l 170 135 z "},"₤":{"ha":799,"x_min":34,"x_max":697,"o":"m 697 112 q 589 12 668 42 q 475 -7 538 -7 q 439 -5 458 -7 q 366 9 413 -3 q 291 27 304 24 q 250 32 268 32 q 190 0 201 32 l 83 0 q 125 140 83 9 q 161 350 161 253 q 160 373 161 361 l 34 373 l 34 444 l 152 444 q 136 508 146 476 l 34 508 l 34 578 l 118 578 q 107 676 107 629 q 139 821 107 755 q 217 910 165 875 q 326 953 266 944 q 366 956 346 956 q 439 944 404 956 q 534 878 497 924 q 571 745 571 830 l 453 745 q 429 820 453 787 q 366 860 404 855 q 349 861 357 861 q 295 846 319 861 q 242 773 259 823 q 234 711 234 748 q 251 578 234 658 l 545 578 l 545 508 l 267 508 q 281 444 276 470 l 545 444 l 545 373 l 294 373 q 296 335 296 355 q 214 91 296 224 q 327 136 265 136 l 332 136 q 446 113 357 136 q 541 99 500 99 q 590 106 569 99 q 644 140 616 113 l 697 112 z "},"₧":{"ha":1424,"x_min":115,"x_max":1341,"o":"m 449 663 q 416 835 449 794 q 294 886 376 886 q 210 884 239 886 l 210 454 q 285 450 237 450 q 409 491 363 450 q 442 562 434 514 q 449 663 449 594 m 553 692 q 554 666 554 679 q 503 463 554 529 q 283 382 441 382 q 210 385 245 382 l 210 0 l 115 0 l 115 949 l 320 949 q 490 890 436 949 q 553 692 547 829 m 948 66 q 797 -7 876 -7 q 718 18 752 -7 q 666 136 666 55 l 666 604 l 567 604 l 567 656 l 576 656 q 652 682 619 656 q 697 761 682 704 q 706 814 705 789 l 768 814 l 768 672 l 901 672 l 901 604 l 768 604 l 768 239 q 770 132 768 158 q 789 79 774 94 q 816 68 799 68 q 859 79 833 68 q 918 115 887 92 l 948 66 m 1257 347 q 1341 174 1341 291 q 1285 38 1341 85 q 1139 -7 1232 -7 l 1124 -7 q 978 60 1024 -3 q 943 178 943 107 l 1039 178 q 1056 105 1040 125 q 1138 68 1086 70 q 1208 85 1187 68 q 1239 174 1239 110 q 1189 281 1239 239 q 1085 344 1167 299 q 986 427 1015 389 q 956 515 958 464 q 1008 643 956 598 q 1141 685 1057 685 l 1149 685 q 1257 644 1219 683 q 1294 534 1294 604 l 1192 534 q 1186 580 1192 562 q 1145 616 1177 612 q 1125 618 1135 618 q 1072 596 1090 618 q 1050 547 1055 578 l 1050 540 q 1054 506 1050 521 q 1139 414 1065 460 q 1202 378 1159 401 q 1257 347 1242 357 z "},"€":{"ha":700,"x_min":47,"x_max":598,"o":"m 189 414 q 233 153 195 239 q 326 77 268 77 q 555 149 450 77 l 598 91 q 321 -7 486 -7 q 159 89 210 -7 q 92 414 99 189 l 47 414 l 47 468 l 92 468 l 92 475 q 92 522 92 499 l 47 522 l 47 576 l 94 576 q 159 843 106 754 q 322 954 204 939 q 363 956 342 956 q 492 928 429 956 q 576 878 562 900 l 536 823 q 366 878 455 878 q 326 876 347 878 q 234 793 268 868 q 191 576 199 717 l 541 576 l 541 522 l 189 522 q 188 481 188 502 l 188 468 l 541 468 l 541 414 l 189 414 z "},"№":{"ha":958,"x_min":34,"x_max":866,"o":"m 595 338 l 866 338 l 866 267 l 595 267 l 595 338 m 414 844 l 519 844 l 519 0 l 347 0 l 136 645 q 139 559 139 579 l 139 0 l 34 0 l 34 844 l 189 844 l 418 157 q 414 242 414 222 l 414 844 m 702 755 q 665 726 673 750 q 654 615 654 699 l 654 604 q 667 482 655 511 q 705 454 676 459 q 732 453 713 453 q 759 455 750 453 q 796 484 787 460 q 806 595 806 511 l 806 606 q 794 728 805 699 q 756 756 785 751 q 729 758 747 758 q 702 755 711 757 m 699 412 q 618 458 642 418 q 595 602 595 500 q 618 748 595 703 q 699 798 642 792 q 730 799 709 799 q 762 798 750 799 q 842 752 819 792 q 866 609 866 710 q 842 463 866 507 q 762 413 818 418 q 730 412 751 412 q 699 412 711 412 z "},"™":{"ha":808,"x_min":34,"x_max":707,"o":"m 418 893 l 420 856 l 420 570 l 372 570 l 372 949 l 429 945 q 525 684 502 745 q 539 638 539 649 l 540 638 q 554 684 541 649 q 650 945 577 745 l 707 949 l 707 570 l 659 570 l 659 856 l 661 894 q 650 856 661 886 l 547 570 l 532 570 l 429 856 q 418 893 419 884 m 345 949 l 345 924 l 214 924 l 214 570 l 166 570 l 166 924 l 34 924 l 34 949 l 345 949 z "},"∂":{"ha":760,"x_min":34,"x_max":658,"o":"m 310 79 q 460 187 393 79 q 535 410 519 285 q 461 492 516 460 q 337 524 406 524 q 198 449 258 524 q 139 276 139 374 q 189 134 139 190 q 309 79 237 79 l 310 79 m 77 888 q 307 977 165 977 q 551 856 453 977 q 658 505 658 724 q 549 119 658 261 q 311 -7 452 -7 l 299 -7 q 96 83 167 -1 q 34 273 34 158 q 119 505 34 410 q 326 599 203 599 q 465 561 402 599 q 543 483 519 528 l 545 483 q 546 527 546 496 q 483 797 546 696 q 326 903 424 890 q 284 905 304 905 q 129 855 196 905 l 77 888 z "},"∆":{"ha":956,"x_min":34,"x_max":909,"o":"m 909 0 l 34 0 l 484 949 l 909 0 m 132 57 l 781 57 l 475 789 l 132 57 z "},"∏":{"ha":914,"x_min":47,"x_max":812,"o":"m 812 949 l 812 0 l 707 0 l 707 884 l 153 884 l 153 0 l 47 0 l 47 949 l 812 949 z "},"∑":{"ha":734,"x_min":34,"x_max":633,"o":"m 633 983 l 633 905 l 193 905 l 416 458 l 193 10 l 633 10 l 633 -68 l 34 -68 l 308 458 l 34 983 l 633 983 z "},"−":{"ha":597,"x_min":47,"x_max":495,"o":"m 47 429 l 495 429 l 495 327 l 47 327 l 47 429 z "},"√":{"ha":805,"x_min":34,"x_max":678,"o":"m 678 1153 l 481 -36 l 386 -36 l 176 538 q 61 486 140 524 l 34 539 q 254 623 243 618 q 416 141 381 259 q 433 34 433 85 l 587 1153 l 678 1153 z "},"∞":{"ha":949,"x_min":34,"x_max":848,"o":"m 484 369 q 555 323 510 341 q 641 304 598 306 q 665 304 654 304 q 793 347 774 304 q 795 369 795 355 q 793 390 795 382 q 665 433 774 433 q 641 433 654 433 q 555 414 598 431 q 484 369 510 397 m 398 363 q 326 409 372 391 q 241 427 283 426 q 217 428 228 428 q 89 385 108 428 q 86 363 86 376 q 89 342 86 349 q 217 298 108 298 q 241 299 228 298 q 326 317 283 300 q 398 363 372 334 m 439 399 q 531 451 474 431 q 640 473 585 470 q 666 473 654 473 q 791 451 745 473 q 845 391 837 429 q 848 365 848 382 q 845 339 848 347 q 798 278 837 299 q 674 257 755 257 l 654 257 q 443 333 529 260 q 351 281 407 300 q 241 259 297 262 q 216 258 228 258 q 90 281 137 258 q 36 341 45 302 q 34 367 34 350 q 36 393 34 385 q 83 454 45 433 q 208 475 126 475 l 228 475 q 439 399 353 471 z "},"∫":{"ha":694,"x_min":37,"x_max":589,"o":"m 435 1153 q 572 1084 528 1153 q 589 1034 589 1059 q 589 1026 589 1030 q 555 978 585 996 q 521 968 539 968 q 511 968 516 968 q 468 1004 482 973 q 462 1062 466 1010 q 431 1098 459 1094 q 415 1099 422 1099 q 351 1002 351 1099 l 351 -151 q 191 -302 351 -302 q 53 -233 98 -302 q 37 -184 37 -209 q 37 -176 37 -180 q 70 -127 41 -145 q 105 -117 87 -117 q 115 -118 110 -117 q 157 -154 144 -123 q 164 -212 160 -159 q 195 -248 166 -243 q 211 -249 203 -249 q 275 -151 275 -249 l 275 1002 q 435 1153 275 1153 z "},"≈":{"ha":814,"x_min":34,"x_max":712,"o":"m 712 503 q 680 439 701 473 q 585 354 637 373 q 498 339 543 339 q 462 342 481 339 q 372 372 411 349 q 281 433 372 373 q 208 463 237 463 q 199 462 203 463 q 164 441 178 459 q 144 404 155 430 q 125 370 132 378 q 102 357 116 357 l 98 357 q 34 371 61 361 q 66 434 45 400 q 161 519 109 500 q 248 534 203 534 q 284 532 265 534 q 374 501 335 524 q 465 441 374 500 q 538 411 509 411 q 547 412 543 411 q 582 432 568 414 q 602 469 591 444 q 621 504 614 496 q 644 517 630 517 l 648 517 q 712 503 685 513 m 712 307 q 680 244 701 278 q 585 159 637 178 q 498 144 543 144 q 462 146 481 144 q 372 177 411 154 q 281 237 372 178 q 208 267 237 267 q 199 267 203 267 q 164 246 178 264 q 144 209 155 235 q 125 174 132 182 q 102 161 116 161 l 98 161 q 34 176 61 165 q 66 239 45 205 q 161 324 109 305 q 248 339 203 339 q 284 336 265 339 q 374 306 335 329 q 465 245 374 305 q 538 216 509 216 q 547 216 543 216 q 582 237 568 219 q 602 274 591 248 q 621 309 614 300 q 644 321 630 321 l 648 321 q 712 307 685 317 z "},"≤":{"ha":682,"x_min":47,"x_max":581,"o":"m 581 675 l 161 484 l 581 292 l 532 190 l 47 450 l 47 517 l 532 777 l 581 675 m 581 49 l 47 49 l 47 137 l 581 137 l 581 49 z "},"≥":{"ha":682,"x_min":47,"x_max":581,"o":"m 96 777 l 581 517 l 581 450 l 96 190 l 47 292 l 467 484 l 47 675 l 96 777 m 47 137 l 581 137 l 581 49 l 47 49 l 47 137 z "},"":{"ha":783,"x_min":0,"x_max":682,"o":"m 193 665 l 334 665 l 334 597 l 193 597 l 193 -7 l 91 -7 l 91 597 l 0 597 l 0 647 l 92 665 q 109 901 92 850 q 269 1010 147 1010 q 393 958 353 1010 q 432 806 432 908 l 336 806 q 319 913 336 882 q 265 944 302 944 l 257 944 q 193 835 193 939 l 193 665 m 568 678 l 666 678 l 666 0 l 568 0 l 568 678 m 615 833 q 567 852 587 833 q 547 901 547 872 q 567 951 547 929 q 615 975 587 975 q 662 951 642 975 q 682 901 682 929 q 662 852 682 872 q 615 833 642 833 z "},"ﬁ":{"ha":783,"x_min":0,"x_max":682,"o":"m 193 665 l 334 665 l 334 597 l 193 597 l 193 -7 l 91 -7 l 91 597 l 0 597 l 0 647 l 92 665 q 109 901 92 850 q 269 1010 147 1010 q 393 958 353 1010 q 432 806 432 908 l 336 806 q 319 913 336 882 q 265 944 302 944 l 257 944 q 193 835 193 939 l 193 665 m 568 678 l 666 678 l 666 0 l 568 0 l 568 678 m 615 833 q 567 852 587 833 q 547 901 547 872 q 567 951 547 929 q 615 975 587 975 q 662 951 642 975 q 682 901 682 929 q 662 852 682 872 q 615 833 642 833 z "},"":{"ha":744,"x_min":0,"x_max":642,"o":"m 193 665 l 334 665 l 334 597 l 193 597 l 193 -7 l 91 -7 l 91 597 l 0 597 l 0 647 l 92 665 q 109 901 92 850 q 269 1010 147 1010 q 393 958 353 1010 q 432 806 432 908 l 336 806 q 319 913 336 882 q 265 944 302 944 l 257 944 q 193 835 193 939 l 193 665 m 547 1017 l 642 1017 l 642 0 l 547 0 l 547 1017 z "},"ﬂ":{"ha":744,"x_min":0,"x_max":642,"o":"m 193 665 l 334 665 l 334 597 l 193 597 l 193 -7 l 91 -7 l 91 597 l 0 597 l 0 647 l 92 665 q 109 901 92 850 q 269 1010 147 1010 q 393 958 353 1010 q 432 806 432 908 l 336 806 q 319 913 336 882 q 265 944 302 944 l 257 944 q 193 835 193 939 l 193 665 m 547 1017 l 642 1017 l 642 0 l 547 0 l 547 1017 z "},"Ѐ":{"ha":652,"x_min":47,"x_max":551,"o":"m 547 949 l 547 885 l 153 885 l 153 517 l 520 517 l 520 453 l 153 453 l 153 64 l 551 64 l 551 0 l 47 0 l 47 949 l 547 949 m 250 976 q 197 1035 223 1002 q 153 1120 153 1090 q 153 1128 153 1124 q 177 1143 157 1138 q 198 1146 189 1146 q 208 1145 203 1146 q 250 1084 228 1139 q 266 1036 256 1067 q 280 993 277 1002 l 250 976 z "},"Ё":{"ha":642,"x_min":47,"x_max":551,"o":"m 174 997 q 134 1013 151 997 q 117 1053 117 1029 q 134 1096 117 1077 q 174 1116 151 1116 q 213 1096 196 1116 q 229 1053 229 1077 q 213 1013 229 1029 q 174 997 197 997 m 420 997 q 380 1013 397 997 q 364 1053 364 1029 q 380 1096 364 1077 q 420 1116 397 1116 q 460 1096 443 1116 q 476 1053 476 1077 q 460 1013 476 1029 q 420 997 444 997 m 551 64 l 551 0 l 47 0 l 47 949 l 547 949 l 547 885 l 153 885 l 153 517 l 520 517 l 520 453 l 153 453 l 153 64 l 551 64 z "},"Ђ":{"ha":0,"x_min":34,"x_max":838,"o":"m 363 495 l 363 0 l 258 0 l 258 827 l 34 827 l 34 949 l 583 949 l 583 827 l 363 827 l 363 591 q 555 665 439 665 q 620 663 600 665 q 788 581 740 653 q 838 353 838 506 q 788 91 838 171 q 574 -6 709 -6 q 458 9 520 -6 l 481 75 q 564 68 528 68 q 623 75 598 68 q 698 128 673 87 q 730 336 730 184 l 730 348 q 693 539 728 481 q 603 596 668 580 q 564 598 588 598 l 551 598 q 500 595 519 598 q 385 532 431 583 q 363 495 372 517 z "},"Ѓ":{"ha":599,"x_min":47,"x_max":538,"o":"m 538 949 l 538 885 l 153 885 l 153 0 l 47 0 l 47 949 l 538 949 m 220 993 q 234 1036 223 1002 q 250 1084 243 1067 q 292 1145 272 1139 q 302 1146 297 1146 q 323 1143 311 1146 q 347 1128 343 1138 q 347 1120 347 1124 q 302 1035 347 1090 q 250 976 277 1002 l 220 993 z "},"Є":{"ha":734,"x_min":47,"x_max":642,"o":"m 285 953 q 345 956 315 956 q 507 937 426 956 q 617 897 599 915 l 570 842 q 359 878 466 878 q 296 875 328 878 q 161 511 166 859 l 490 517 l 490 437 l 161 448 q 209 142 165 231 q 313 77 246 77 q 591 132 459 77 l 642 64 q 300 -7 493 -7 q 111 89 171 -7 q 47 474 47 201 q 109 843 47 734 q 285 953 163 939 z "},"Ѕ":{"ha":614,"x_min":47,"x_max":547,"o":"m 448 456 q 547 245 543 384 q 473 55 547 122 q 287 -7 404 -7 q 265 -6 276 -7 q 87 81 144 -1 q 47 214 47 139 l 159 214 q 181 127 159 166 q 269 68 211 72 q 285 68 277 68 q 381 100 342 68 q 434 245 434 144 q 394 362 434 318 q 232 481 353 407 q 102 596 146 533 q 62 705 68 635 q 61 734 61 720 q 125 898 61 839 q 294 956 188 956 l 306 956 q 447 902 395 954 q 500 762 500 850 l 395 762 q 300 881 389 868 q 287 882 294 882 q 195 850 229 882 q 165 757 165 816 q 168 713 165 737 q 279 565 184 631 q 368 510 307 546 q 448 456 422 478 z "},"І":{"ha":264,"x_min":47,"x_max":149,"o":"m 47 949 l 149 949 l 149 0 l 47 0 l 47 949 z "},"Ї":{"ha":454,"x_min":47,"x_max":339,"o":"m 283 1129 q 323 1109 306 1129 q 339 1066 339 1090 q 323 1027 339 1043 q 283 1010 307 1010 q 243 1027 260 1010 q 227 1066 227 1043 q 243 1109 227 1090 q 283 1129 260 1129 m 159 1066 q 143 1027 159 1043 q 104 1010 127 1010 q 64 1027 80 1010 q 47 1066 47 1043 q 64 1109 47 1090 q 104 1129 81 1129 q 143 1109 126 1129 q 159 1066 159 1090 m 143 949 l 245 949 l 245 0 l 143 0 l 143 949 z "},"Ј":{"ha":378,"x_min":47,"x_max":276,"o":"m 174 949 l 276 949 l 276 262 q 259 68 276 115 q 139 -7 232 -7 q 47 24 83 -7 l 75 104 q 113 87 92 93 q 132 85 123 85 q 155 94 146 85 q 172 153 169 109 q 174 305 174 179 l 174 949 z "},"Љ":{"ha":1213,"x_min":34,"x_max":1152,"o":"m 871 71 q 994 109 949 71 q 1044 271 1044 154 q 996 425 1044 376 q 857 467 954 467 l 698 467 l 698 71 l 871 71 m 598 0 l 598 884 l 338 884 q 280 330 328 593 q 201 43 239 104 q 173 12 189 23 q 109 -7 145 -7 q 34 12 64 -7 l 57 87 q 83 83 69 83 l 87 83 q 127 109 118 84 q 250 949 231 429 l 698 949 l 698 535 l 860 535 q 1036 507 984 535 q 1126 414 1099 473 q 1152 270 1152 359 q 1093 75 1152 132 q 883 0 1018 0 l 598 0 z "},"Њ":{"ha":1156,"x_min":47,"x_max":1095,"o":"m 814 71 q 937 109 892 71 q 987 271 987 154 q 939 425 987 376 q 800 467 897 467 l 641 467 l 641 71 l 814 71 m 641 949 l 641 535 l 803 535 q 979 507 927 535 q 1069 414 1042 473 q 1095 270 1095 359 q 1036 75 1095 132 q 826 0 961 0 l 538 0 l 538 441 l 153 441 l 153 0 l 47 0 l 47 949 l 153 949 l 153 512 l 538 512 l 538 949 l 641 949 z "},"Ћ":{"ha":982,"x_min":34,"x_max":880,"o":"m 363 827 l 363 454 q 625 548 467 548 q 842 430 774 548 q 880 312 876 371 l 880 0 l 775 0 l 775 286 q 747 379 771 332 q 595 473 699 473 q 363 349 475 473 l 363 0 l 258 0 l 258 827 l 34 827 l 34 949 l 583 949 l 583 827 l 363 827 z "},"Ќ":{"ha":707,"x_min":47,"x_max":616,"o":"m 500 463 q 581 310 557 412 q 604 56 599 227 q 616 0 604 26 l 511 0 q 496 59 498 20 q 483 269 491 214 q 433 398 470 359 q 224 454 382 454 l 153 454 l 153 0 l 47 0 l 47 949 l 153 949 l 153 520 q 210 522 168 522 l 462 948 l 591 948 l 311 522 q 500 463 440 517 m 258 966 q 273 1008 262 975 q 289 1057 282 1039 q 331 1118 311 1111 q 340 1118 336 1118 q 361 1116 350 1118 q 385 1101 382 1110 q 386 1093 386 1097 q 341 1007 386 1062 q 289 949 315 975 l 258 966 z "},"Ѝ":{"ha":0,"x_min":0,"x_max":0,"o":""},"Ў":{"ha":675,"x_min":27,"x_max":601,"o":"m 601 949 q 417 213 501 522 q 342 41 382 87 q 216 -7 300 -7 q 153 1 174 -7 l 158 74 q 198 69 174 69 q 277 104 256 69 q 322 216 310 157 q 277 222 293 216 q 216 301 233 241 q 27 949 168 469 l 132 949 q 300 326 254 479 q 337 281 313 281 l 340 281 q 496 949 416 581 l 601 949 m 314 1013 q 386 1042 356 1013 q 416 1114 416 1072 l 484 1114 q 434 994 484 1044 q 314 951 385 951 q 194 994 243 951 q 144 1114 144 1044 l 212 1114 q 242 1042 212 1072 q 314 1013 272 1013 z "},"Џ":{"ha":745,"x_min":47,"x_max":643,"o":"m 258 0 l 47 0 l 47 949 l 153 949 l 153 65 l 538 65 l 538 949 l 643 949 l 643 0 l 393 0 l 393 -224 l 258 -224 l 258 0 z "},"А":{"ha":712,"x_min":34,"x_max":651,"o":"m 393 949 l 651 0 l 539 0 l 480 245 l 205 245 l 146 0 l 34 0 l 298 949 l 393 949 m 222 317 l 463 317 l 342 822 l 222 317 z "},"Б":{"ha":696,"x_min":47,"x_max":604,"o":"m 322 71 q 450 115 397 71 q 488 181 479 139 q 495 275 495 211 q 454 418 495 374 q 308 467 410 467 l 153 467 l 153 71 l 322 71 m 492 507 q 581 414 554 476 q 604 267 604 359 q 542 73 604 134 q 346 0 466 0 l 47 0 l 47 949 l 537 949 l 537 885 l 153 885 l 153 535 l 311 535 q 492 507 434 535 z "},"В":{"ha":677,"x_min":34,"x_max":576,"o":"m 428 110 q 468 252 468 143 q 467 275 468 262 q 402 412 461 376 q 257 449 353 442 q 139 452 224 452 l 139 76 q 273 71 208 71 q 313 71 294 71 q 428 110 386 76 m 139 886 l 139 517 q 269 518 237 517 q 414 570 363 523 q 454 688 450 604 l 454 703 q 421 840 454 800 q 300 886 385 886 l 139 886 m 337 484 q 494 437 431 484 q 576 257 576 376 q 519 67 576 123 q 314 0 453 0 l 34 0 l 34 949 l 313 949 q 502 889 442 949 q 559 709 559 832 l 559 694 q 467 514 554 567 q 337 484 419 486 z "},"Г":{"ha":599,"x_min":47,"x_max":538,"o":"m 538 949 l 538 885 l 153 885 l 153 0 l 47 0 l 47 949 l 538 949 z "},"Д":{"ha":941,"x_min":34,"x_max":849,"o":"m 639 65 l 639 881 l 385 881 q 219 65 317 323 l 639 65 m 849 65 l 849 -183 l 785 -183 l 744 0 l 139 0 l 92 -183 l 34 -183 l 34 65 l 133 65 q 307 949 234 309 l 744 949 l 744 65 l 849 65 z "},"Е":{"ha":642,"x_min":47,"x_max":551,"o":"m 547 949 l 547 885 l 153 885 l 153 517 l 520 517 l 520 453 l 153 453 l 153 64 l 551 64 l 551 0 l 47 0 l 47 949 l 547 949 z "},"Ж":{"ha":1116,"x_min":47,"x_max":1048,"o":"m 1037 56 q 1048 0 1038 22 l 943 0 q 928 59 930 20 q 915 269 923 214 q 865 398 902 359 q 656 454 813 454 l 600 454 l 600 0 l 495 0 l 495 454 l 439 454 q 230 398 282 454 q 180 269 193 359 q 167 59 172 214 q 153 0 165 20 l 47 0 q 58 56 58 22 q 82 308 63 225 q 163 460 105 408 q 326 518 224 515 l 57 948 l 186 948 l 425 522 l 495 522 l 495 949 l 600 949 l 600 522 l 670 522 l 909 948 l 1038 948 l 769 518 q 857 506 825 516 q 932 460 895 494 q 1013 308 990 408 q 1037 56 1032 225 z "},"З":{"ha":669,"x_min":34,"x_max":577,"o":"m 428 510 q 511 468 477 499 q 577 292 577 406 q 516 60 577 128 q 316 -7 456 -7 q 109 30 186 -7 q 37 83 58 54 q 34 125 34 104 q 35 147 34 136 q 70 215 39 212 q 83 216 77 216 q 127 195 115 216 q 134 154 134 182 q 130 96 134 134 q 303 60 197 60 q 423 110 374 60 q 452 182 446 136 q 456 291 456 209 q 402 436 456 392 q 276 482 354 482 l 168 482 l 168 547 l 276 547 q 404 583 352 547 q 455 705 455 623 l 455 731 q 420 853 455 815 q 296 894 385 894 q 155 854 201 894 q 159 819 159 837 q 150 776 159 789 q 87 758 136 758 q 50 813 56 758 q 49 838 49 826 q 51 869 49 854 q 128 921 69 895 q 325 956 208 956 q 519 885 457 956 q 568 718 568 831 q 567 685 568 702 q 505 557 561 606 q 429 516 481 536 q 418 512 427 515 q 428 510 427 511 z "},"И":{"ha":761,"x_min":47,"x_max":639,"o":"m 639 949 l 639 0 l 534 0 l 534 685 q 538 784 534 705 q 486 656 498 683 q 168 0 406 494 l 47 0 l 47 949 l 153 949 l 153 222 q 148 123 153 202 q 198 257 185 229 q 536 935 275 429 l 639 949 z "},"Й":{"ha":761,"x_min":47,"x_max":639,"o":"m 343 1021 q 136 1106 207 1021 l 209 1153 q 252 1111 248 1114 q 343 1083 290 1083 q 434 1111 396 1083 q 477 1153 438 1114 l 551 1106 q 477 1046 516 1064 q 343 1021 425 1021 m 639 949 l 639 0 l 534 0 l 534 685 q 538 784 534 705 q 486 656 498 683 q 168 0 406 494 l 47 0 l 47 949 l 153 949 l 153 222 q 148 123 153 202 q 198 257 185 229 q 536 935 275 429 l 639 949 z "},"К":{"ha":690,"x_min":47,"x_max":616,"o":"m 500 463 q 581 310 557 412 q 604 56 599 227 q 616 0 604 26 l 511 0 q 496 59 498 20 q 483 269 491 214 q 433 398 470 359 q 224 454 382 454 l 153 454 l 153 0 l 47 0 l 47 949 l 153 949 l 153 520 q 210 522 168 522 l 462 948 l 591 948 l 311 522 q 500 463 440 517 z "},"Л":{"ha":819,"x_min":27,"x_max":696,"o":"m 696 949 l 696 0 l 591 0 l 591 884 l 331 884 q 273 330 321 593 q 195 43 233 104 q 166 12 182 23 q 102 -7 138 -7 q 27 12 58 -7 l 50 87 q 76 83 62 83 l 80 83 q 120 109 111 84 q 243 949 224 429 l 696 949 z "},"М":{"ha":913,"x_min":47,"x_max":791,"o":"m 791 949 l 791 0 l 686 0 l 686 715 l 689 811 q 665 689 688 789 l 436 0 l 402 0 l 174 689 q 149 811 151 789 l 153 715 l 153 0 l 47 0 l 47 949 l 181 940 q 387 307 335 471 q 418 172 418 198 l 420 172 q 451 307 420 198 q 657 940 503 471 l 791 949 z "},"Н":{"ha":765,"x_min":47,"x_max":643,"o":"m 643 949 l 643 0 l 538 0 l 538 441 l 153 441 l 153 0 l 47 0 l 47 949 l 153 949 l 153 512 l 538 512 l 538 949 l 643 949 z "},"О":{"ha":817,"x_min":47,"x_max":722,"o":"m 456 69 q 565 155 532 84 q 607 452 607 243 l 607 477 q 559 800 605 707 q 450 882 526 869 q 393 885 430 885 l 381 885 q 313 880 336 884 q 205 795 237 865 q 163 498 163 707 l 163 472 q 210 150 165 243 q 320 68 244 81 q 376 64 340 64 l 389 64 q 456 69 434 65 m 463 954 q 663 840 605 940 q 722 484 722 735 q 663 120 722 231 q 463 -4 604 9 q 385 -7 437 -6 l 369 -7 q 307 -4 332 -7 q 107 110 165 9 q 47 465 47 214 q 107 829 47 718 q 307 954 166 940 q 385 956 332 956 l 400 956 q 463 954 438 956 z "},"П":{"ha":765,"x_min":47,"x_max":643,"o":"m 643 949 l 643 0 l 538 0 l 538 884 l 153 884 l 153 0 l 47 0 l 47 949 l 643 949 z "},"Р":{"ha":626,"x_min":47,"x_max":534,"o":"m 418 663 q 382 835 418 794 q 245 886 337 886 q 153 884 185 886 l 153 454 q 236 450 183 450 q 374 491 323 450 q 411 562 401 514 q 418 663 418 594 m 534 692 q 534 666 534 679 q 478 463 534 529 q 234 382 410 382 q 153 385 192 382 l 153 0 l 47 0 l 47 949 l 275 949 q 464 890 404 949 q 534 692 527 829 z "},"С":{"ha":745,"x_min":47,"x_max":643,"o":"m 643 98 q 317 0 511 0 q 126 96 187 0 q 47 481 47 209 q 126 850 47 737 q 318 960 180 945 q 366 963 342 963 q 518 942 444 963 q 618 898 592 918 l 570 844 q 396 886 486 886 q 370 885 383 886 q 323 882 347 885 q 215 800 255 875 q 161 488 161 699 q 214 160 161 261 q 323 84 255 84 q 592 155 469 84 l 643 98 z "},"Т":{"ha":807,"x_min":34,"x_max":726,"o":"m 726 949 l 726 885 l 433 885 l 433 0 l 328 0 l 328 885 l 34 885 l 34 949 l 726 949 z "},"У":{"ha":675,"x_min":27,"x_max":601,"o":"m 601 949 q 417 213 501 522 q 342 41 382 87 q 216 -7 300 -7 q 153 1 174 -7 l 158 74 q 198 69 174 69 q 277 104 256 69 q 322 216 310 157 q 277 222 293 216 q 216 301 233 241 q 27 949 168 469 l 132 949 q 300 326 254 479 q 337 281 313 281 l 340 281 q 496 949 416 581 l 601 949 z "},"Ф":{"ha":924,"x_min":37,"x_max":833,"o":"m 503 216 q 600 224 567 216 q 669 262 644 234 q 725 531 725 325 q 669 764 725 703 q 564 804 637 798 q 496 808 523 808 l 488 808 l 488 216 l 503 216 m 382 809 l 368 809 q 271 802 303 809 q 201 764 227 792 q 145 495 145 701 q 201 262 145 322 q 307 221 233 227 q 374 218 347 218 l 382 218 l 382 809 m 576 877 q 769 812 718 868 q 833 538 833 742 q 774 231 833 310 q 576 150 725 164 q 499 146 551 147 l 488 146 l 488 0 l 382 0 l 382 147 q 371 146 376 147 q 294 149 338 146 q 101 214 152 158 q 37 488 37 284 q 96 795 37 716 q 294 876 145 862 q 371 879 319 878 l 382 879 l 382 983 l 488 983 l 488 879 l 499 879 q 576 877 532 879 z "},"Х":{"ha":742,"x_min":37,"x_max":650,"o":"m 648 949 l 404 481 l 650 0 l 525 0 l 344 422 l 163 0 l 37 0 l 284 481 l 39 949 l 165 949 l 344 543 l 523 949 l 648 949 z "},"Ц":{"ha":846,"x_min":47,"x_max":754,"o":"m 649 949 l 649 65 l 754 65 l 754 -183 l 690 -183 l 649 0 l 47 0 l 47 949 l 153 949 l 153 65 l 544 65 l 544 949 l 649 949 z "},"Ч":{"ha":772,"x_min":47,"x_max":650,"o":"m 650 949 l 650 0 l 545 0 l 545 495 q 303 401 460 401 q 85 519 153 401 q 47 637 52 578 l 47 949 l 153 949 l 153 663 q 181 570 157 617 q 333 477 229 477 q 545 601 453 477 l 545 949 l 650 949 z "},"Ш":{"ha":1214,"x_min":47,"x_max":1092,"o":"m 153 949 l 153 65 l 517 65 l 517 949 l 623 949 l 623 65 l 987 65 l 987 949 l 1092 949 l 1092 0 l 47 0 l 47 949 l 153 949 z "},"Щ":{"ha":1278,"x_min":47,"x_max":1196,"o":"m 1091 949 l 1091 65 l 1196 65 l 1196 -183 l 1132 -183 l 1091 0 l 47 0 l 47 949 l 153 949 l 153 65 l 517 65 l 517 949 l 623 949 l 623 65 l 986 65 l 986 949 l 1091 949 z "},"Ъ":{"ha":897,"x_min":47,"x_max":806,"o":"m 648 109 q 699 271 699 154 q 650 425 699 376 q 511 467 608 467 l 352 467 l 352 71 l 525 71 q 648 109 603 71 m 690 507 q 780 414 753 473 q 806 270 806 359 q 747 75 806 132 q 537 0 672 0 l 247 0 l 247 878 l 47 878 l 47 949 l 352 949 l 352 535 l 514 535 q 690 507 638 535 z "},"Ы":{"ha":947,"x_min":47,"x_max":825,"o":"m 720 949 l 825 949 l 825 0 l 720 0 l 720 949 m 448 109 q 499 271 499 154 q 450 425 499 376 q 312 467 408 467 l 153 467 l 153 71 l 326 71 q 448 109 404 71 m 490 507 q 581 414 553 473 q 606 270 606 359 q 548 75 606 132 q 338 0 473 0 l 47 0 l 47 949 l 153 949 l 153 535 l 315 535 q 490 507 439 535 z "},"Ь":{"ha":698,"x_min":47,"x_max":606,"o":"m 326 71 q 448 109 404 71 q 499 271 499 154 q 450 425 499 376 q 312 467 408 467 l 153 467 l 153 71 l 326 71 m 490 507 q 581 414 553 473 q 606 270 606 359 q 548 75 606 132 q 338 0 473 0 l 47 0 l 47 949 l 153 949 l 153 535 l 315 535 q 490 507 439 535 z "},"Э":{"ha":734,"x_min":47,"x_max":642,"o":"m 398 953 q 581 843 526 939 q 642 474 642 734 q 572 89 642 201 q 383 -7 512 -7 q 47 64 197 -7 l 98 132 q 370 77 231 77 q 474 142 437 77 q 529 448 525 231 l 199 437 l 199 517 l 529 511 q 387 875 524 859 q 324 878 355 878 q 120 842 224 878 l 73 897 q 183 937 91 915 q 338 956 264 956 q 398 953 368 956 z "},"Ю":{"ha":1072,"x_min":47,"x_max":980,"o":"m 721 69 q 826 155 795 84 q 865 450 865 241 l 865 477 q 821 800 863 708 q 714 882 789 869 q 660 885 694 885 l 648 885 q 583 880 606 884 q 477 795 509 865 q 439 493 439 707 l 439 472 q 484 150 441 241 q 590 68 515 81 q 644 64 610 64 l 656 64 q 721 69 699 65 m 726 954 q 924 840 868 940 q 980 484 980 736 q 924 120 980 229 q 726 -4 867 9 q 652 -7 701 -6 q 577 -4 606 -7 q 383 104 439 9 q 324 441 326 203 l 153 441 l 153 0 l 47 0 l 47 949 l 153 949 l 153 512 l 324 512 q 387 840 329 741 q 577 954 444 941 q 652 956 602 956 q 726 954 698 956 z "},"Я":{"ha":705,"x_min":47,"x_max":583,"o":"m 478 884 l 327 884 q 212 837 259 884 q 167 682 167 793 q 205 539 167 578 q 353 490 252 490 l 478 490 l 478 884 m 583 949 l 583 0 l 478 0 l 478 421 l 365 421 q 222 370 266 421 q 158 59 165 305 q 144 0 157 20 l 47 0 q 60 56 58 26 q 84 299 64 230 q 152 425 111 395 q 251 459 180 446 q 113 511 153 474 q 59 680 59 561 q 123 875 59 814 q 316 949 200 949 l 583 949 z "},"а":{"ha":618,"x_min":34,"x_max":499,"o":"m 390 328 q 219 321 264 328 q 150 288 166 313 q 135 224 138 269 q 134 196 134 210 q 142 122 134 155 q 209 63 156 63 q 267 76 234 63 q 389 132 283 83 l 390 328 m 492 107 q 499 12 492 61 l 410 0 q 395 50 401 12 q 394 73 394 58 q 249 9 301 31 q 165 -7 205 -7 q 130 -3 146 -7 q 52 58 70 8 q 34 224 34 108 q 48 307 34 271 q 123 378 71 363 q 390 396 191 396 l 390 520 q 384 584 390 570 q 358 606 378 599 q 308 611 340 611 q 278 610 294 611 q 81 580 201 607 l 57 649 q 337 685 217 685 q 471 638 437 685 q 492 533 492 609 l 492 107 z "},"б":{"ha":659,"x_min":34,"x_max":564,"o":"m 312 70 q 414 115 380 70 q 460 339 460 178 q 421 551 460 489 q 328 603 391 598 q 313 604 320 604 q 189 546 239 604 q 132 375 132 481 l 132 305 q 181 117 132 172 q 312 70 222 70 m 342 676 q 508 600 456 676 q 564 339 564 519 q 311 -7 564 -7 q 97 75 167 -7 q 34 339 34 155 q 108 803 34 639 q 178 897 136 864 q 367 928 208 920 q 466 938 436 931 q 512 970 509 947 l 556 970 l 556 964 q 503 853 543 901 q 271 829 438 829 q 222 817 237 829 q 135 568 165 766 q 224 652 162 624 q 342 676 276 676 z "},"в":{"ha":576,"x_min":34,"x_max":475,"o":"m 342 86 q 370 175 370 106 q 370 199 370 189 q 332 281 366 255 q 224 313 298 309 q 136 316 214 313 l 136 70 q 236 66 191 66 q 260 66 249 66 q 342 86 319 70 m 136 618 l 136 370 q 233 372 214 371 q 333 405 301 375 q 363 492 363 434 q 333 593 363 568 q 255 618 305 618 l 136 618 m 282 342 q 474 186 464 342 q 475 164 475 177 q 426 40 475 79 q 274 0 376 0 l 34 0 l 34 678 l 270 678 q 423 629 371 678 q 459 504 459 594 l 459 492 q 386 366 456 402 q 282 342 342 343 z "},"г":{"ha":496,"x_min":34,"x_max":422,"o":"m 422 678 l 422 614 l 136 614 l 136 0 l 34 0 l 34 678 l 422 678 z "},"д":{"ha":770,"x_min":34,"x_max":678,"o":"m 490 61 l 490 617 l 309 617 q 184 61 260 219 l 490 61 m 678 61 l 678 -142 l 613 -142 l 582 0 l 130 0 l 99 -142 l 34 -142 l 34 61 l 102 61 q 234 678 181 211 l 588 678 l 588 61 l 678 61 z "},"е":{"ha":614,"x_min":34,"x_max":515,"o":"m 430 372 q 402 542 427 489 q 287 612 369 612 q 188 570 222 612 q 136 372 141 513 l 430 372 m 136 304 q 179 116 136 163 q 274 65 208 73 q 302 64 288 64 q 389 73 340 64 q 477 101 446 85 l 513 47 q 299 -7 410 -7 q 260 -5 279 -7 q 91 85 142 5 q 34 332 34 158 q 113 606 34 511 q 292 685 177 685 l 304 685 q 482 564 431 680 q 515 369 515 488 q 513 304 515 338 l 136 304 z "},"ж":{"ha":926,"x_min":34,"x_max":845,"o":"m 835 40 q 845 0 836 18 l 745 0 q 733 42 734 14 q 720 192 729 144 q 677 285 707 256 q 605 320 648 312 q 535 325 583 325 l 490 325 l 490 0 l 389 0 l 389 325 l 344 325 q 274 320 296 325 q 202 285 231 312 q 159 192 172 256 q 146 42 150 144 q 134 0 144 14 l 34 0 q 44 40 43 18 q 66 227 47 160 q 134 342 87 306 q 257 387 190 387 l 45 678 l 167 678 l 343 391 l 389 391 l 389 678 l 490 678 l 490 391 l 536 391 l 712 678 l 834 678 l 622 387 q 745 342 689 387 q 813 227 792 306 q 835 40 831 160 z "},"з":{"ha":572,"x_min":34,"x_max":470,"o":"m 351 358 q 417 324 385 351 q 470 200 470 279 q 428 45 470 96 q 267 -7 378 -7 q 102 20 185 -7 q 36 54 49 37 q 34 87 34 70 q 35 107 34 97 q 62 164 38 161 q 71 165 67 165 q 108 150 98 165 q 114 120 114 140 q 111 85 114 106 q 245 60 170 60 q 330 87 308 60 q 362 199 362 116 q 323 305 362 273 q 220 332 293 332 l 144 332 l 144 391 l 224 391 q 321 417 286 391 q 362 505 362 447 q 336 606 362 583 q 248 625 309 625 q 134 601 178 625 q 137 569 137 583 q 130 539 137 548 q 80 525 119 525 q 51 574 55 525 q 50 595 50 584 q 52 623 50 608 q 113 660 66 641 q 267 685 183 685 q 421 635 378 685 q 463 514 463 592 q 462 490 463 503 q 412 394 458 432 q 352 362 392 376 q 344 359 351 362 q 351 358 350 358 z "},"и":{"ha":644,"x_min":34,"x_max":522,"o":"m 522 678 l 522 0 l 420 0 l 420 496 l 423 564 q 398 496 418 536 l 134 0 l 34 0 l 34 678 l 136 678 l 136 189 l 133 121 q 158 189 138 149 q 422 668 221 306 l 522 678 z "},"й":{"ha":644,"x_min":34,"x_max":522,"o":"m 278 749 q 158 771 204 749 q 92 825 123 788 l 158 867 q 197 829 193 832 q 278 804 231 804 q 359 829 326 804 q 398 867 363 832 l 464 825 q 398 771 433 788 q 278 749 352 749 m 522 678 l 522 0 l 420 0 l 420 496 l 423 564 q 398 496 418 536 l 134 0 l 34 0 l 34 678 l 136 678 l 136 189 l 133 121 q 158 189 138 149 q 422 668 221 306 l 522 678 z "},"к":{"ha":587,"x_min":34,"x_max":509,"o":"m 409 342 q 477 227 456 306 q 498 40 495 160 q 509 0 499 18 l 408 0 q 397 42 398 14 q 383 192 393 144 q 340 285 371 256 q 180 325 298 325 l 136 325 l 136 0 l 34 0 l 34 678 l 136 678 l 136 391 q 166 391 149 391 l 358 682 l 480 682 l 252 387 q 409 342 353 387 z "},"л":{"ha":697,"x_min":31,"x_max":575,"o":"m 575 678 l 575 0 l 473 0 l 473 617 l 269 617 q 177 29 251 151 q 108 -7 155 -7 q 31 7 58 -7 l 50 77 q 70 74 59 74 l 74 74 q 106 92 98 75 q 191 678 171 232 l 575 678 z "},"м":{"ha":760,"x_min":34,"x_max":637,"o":"m 637 678 l 637 0 l 539 0 l 539 536 q 522 448 537 503 q 349 0 522 447 l 322 0 q 149 448 149 447 q 132 536 134 503 l 132 0 l 34 0 l 34 678 l 144 671 q 310 228 268 335 q 335 138 335 157 l 336 138 q 361 228 336 157 q 528 671 404 335 l 637 678 z "},"н":{"ha":646,"x_min":34,"x_max":524,"o":"m 524 678 l 524 0 l 422 0 l 422 305 l 136 305 l 136 0 l 34 0 l 34 678 l 136 678 l 136 373 l 422 373 l 422 678 l 524 678 z "},"о":{"ha":703,"x_min":34,"x_max":601,"o":"m 372 62 q 460 121 436 80 q 493 329 493 178 l 493 341 q 456 559 491 502 q 366 616 431 600 q 326 618 351 618 l 314 618 q 263 615 282 618 q 174 557 198 597 q 142 349 142 500 l 142 337 q 179 118 144 176 q 269 62 203 78 q 320 59 288 59 q 372 62 353 60 m 382 683 q 551 601 503 673 q 601 346 601 526 q 551 84 601 164 q 382 -5 500 5 q 317 -7 361 -7 q 252 -5 272 -7 q 84 77 132 5 q 34 332 34 152 q 84 594 34 514 q 252 683 134 673 q 317 685 274 685 q 382 683 362 685 z "},"п":{"ha":646,"x_min":34,"x_max":524,"o":"m 524 678 l 524 0 l 422 0 l 422 617 l 136 617 l 136 0 l 34 0 l 34 678 l 524 678 z "},"р":{"ha":666,"x_min":34,"x_max":568,"o":"m 340 61 q 431 111 407 68 q 466 332 466 170 q 427 555 466 494 q 334 603 399 600 l 325 603 q 141 520 224 603 l 141 111 q 226 77 171 94 q 321 60 281 60 q 340 61 331 60 m 358 685 q 522 604 474 685 q 568 338 568 526 q 511 77 568 161 q 347 -6 458 -1 q 320 -7 334 -7 q 141 27 223 -7 l 141 -407 l 39 -407 l 39 576 q 34 665 39 620 l 124 678 q 135 623 132 660 q 137 601 136 613 q 203 650 159 627 q 358 685 273 685 z "},"с":{"ha":626,"x_min":34,"x_max":524,"o":"m 524 76 q 254 -7 415 -7 q 85 75 136 -7 q 34 339 34 155 q 85 600 34 522 q 250 684 136 677 q 270 685 260 685 l 284 685 q 417 671 362 685 q 500 635 475 655 l 456 580 q 287 612 389 612 l 267 612 q 174 568 202 612 q 136 346 136 509 q 174 120 136 182 q 267 72 203 72 q 480 125 387 72 l 524 76 z "},"т":{"ha":646,"x_min":34,"x_max":561,"o":"m 561 678 l 561 614 l 348 614 l 348 0 l 247 0 l 247 614 l 34 614 l 34 678 l 561 678 z "},"у":{"ha":636,"x_min":31,"x_max":548,"o":"m 548 678 q 329 -190 404 60 q 260 -355 290 -318 q 138 -414 214 -414 q 81 -407 100 -414 l 85 -332 q 112 -334 97 -334 l 122 -334 q 189 -305 162 -332 q 246 -161 216 -277 q 286 -7 262 -99 q 258 4 268 -1 q 200 77 214 26 q 31 678 158 231 l 138 678 q 277 113 241 255 q 307 71 287 76 q 456 678 376 349 l 548 678 z "},"ф":{"ha":867,"x_min":34,"x_max":785,"o":"m 556 69 q 645 121 621 81 q 677 329 677 178 l 677 341 q 640 560 675 502 q 551 610 615 600 q 499 612 531 612 q 460 610 477 612 l 460 67 q 505 66 479 66 q 556 69 537 66 m 359 611 q 315 612 340 612 q 263 609 282 612 q 174 557 198 598 q 142 349 142 500 l 142 337 q 179 119 144 176 q 269 68 204 78 q 308 66 283 66 l 320 66 q 359 68 342 66 l 359 611 m 567 684 q 735 602 687 673 q 785 346 785 526 q 735 84 785 164 q 567 -5 686 5 q 502 -7 546 -7 q 460 -6 477 -7 l 460 -407 l 359 -407 l 359 -6 q 317 -7 340 -7 q 252 -5 272 -7 q 84 77 132 5 q 34 332 34 153 q 84 595 34 515 q 252 684 134 673 q 317 685 273 685 q 359 684 342 685 l 359 950 l 460 950 l 460 684 q 502 685 479 685 q 567 684 547 685 z "},"х":{"ha":610,"x_min":34,"x_max":529,"o":"m 526 678 l 346 339 l 529 0 l 412 0 l 281 284 l 151 0 l 34 0 l 220 339 l 37 678 l 155 678 l 281 392 l 408 678 l 526 678 z "},"ц":{"ha":714,"x_min":34,"x_max":633,"o":"m 531 678 l 531 61 l 633 61 l 633 -142 l 568 -142 l 536 0 l 34 0 l 34 678 l 136 678 l 136 61 l 429 61 l 429 678 l 531 678 z "},"ч":{"ha":648,"x_min":31,"x_max":526,"o":"m 526 678 l 526 0 l 425 0 l 425 334 q 356 292 382 302 q 241 273 310 273 q 62 361 117 273 q 31 451 34 406 l 31 678 l 132 678 l 132 467 q 148 401 132 434 q 265 334 180 334 q 364 359 322 334 q 425 413 393 376 l 425 678 l 526 678 z "},"ш":{"ha":1000,"x_min":34,"x_max":878,"o":"m 507 678 l 507 61 l 776 61 l 776 678 l 878 678 l 878 0 l 34 0 l 34 678 l 136 678 l 136 61 l 405 61 l 405 678 l 507 678 z "},"щ":{"ha":1057,"x_min":34,"x_max":979,"o":"m 878 678 l 878 61 l 979 61 l 979 -142 l 914 -142 l 880 0 l 34 0 l 34 678 l 136 678 l 136 61 l 405 61 l 405 678 l 507 678 l 507 61 l 776 61 l 776 678 l 878 678 z "},"ъ":{"ha":743,"x_min":34,"x_max":658,"o":"m 561 196 q 558 256 561 241 q 538 302 554 283 q 422 336 510 336 l 305 336 l 305 65 l 441 65 q 537 98 511 65 q 561 196 561 127 m 553 380 q 635 317 611 360 q 658 202 658 277 q 608 53 658 96 q 435 0 547 0 l 203 0 l 203 610 l 34 610 l 34 678 l 305 678 l 305 396 l 431 396 q 553 380 509 396 z "},"ы":{"ha":807,"x_min":34,"x_max":685,"o":"m 583 678 l 685 678 l 685 0 l 583 0 l 583 678 m 391 196 q 389 256 391 241 q 370 302 385 283 q 252 336 340 336 l 136 336 l 136 65 l 273 65 q 368 98 342 65 q 391 196 391 127 m 385 380 q 466 317 442 360 q 489 202 489 277 q 439 53 489 96 q 265 0 378 0 l 34 0 l 34 678 l 136 678 l 136 396 l 262 396 q 385 380 340 396 z "},"ь":{"ha":574,"x_min":34,"x_max":489,"o":"m 136 65 l 273 65 q 368 98 342 65 q 391 196 391 127 q 389 256 391 241 q 370 302 385 283 q 252 336 340 336 l 136 336 l 136 65 m 262 396 q 385 380 340 396 q 466 317 442 360 q 489 202 489 277 q 439 53 489 96 q 265 0 378 0 l 34 0 l 34 678 l 136 678 l 136 396 l 262 396 z "},"э":{"ha":616,"x_min":31,"x_max":524,"o":"m 300 684 q 473 600 422 677 q 524 338 524 522 q 474 79 524 157 q 304 -6 425 4 q 284 -7 296 -7 q 203 -1 253 -7 q 31 41 102 10 l 67 102 q 164 75 96 89 q 265 64 224 64 q 291 65 279 64 q 383 112 355 73 q 422 311 422 168 l 178 306 l 178 374 l 422 368 q 382 568 422 509 q 291 618 353 612 q 266 619 279 619 q 92 585 195 619 l 63 640 q 145 668 89 654 q 275 685 212 685 q 300 684 288 685 z "},"ю":{"ha":920,"x_min":34,"x_max":829,"o":"m 600 70 q 688 121 664 81 q 720 323 720 176 l 720 341 q 684 559 719 502 q 593 610 659 600 q 559 612 578 612 l 549 612 q 505 608 524 612 q 417 557 441 597 q 387 350 387 501 l 387 337 q 422 119 389 176 q 510 68 446 78 q 545 66 525 66 l 555 66 q 600 70 580 66 m 610 683 q 779 601 730 673 q 829 346 829 526 q 779 84 829 164 q 610 -5 728 5 q 552 -7 589 -7 q 494 -5 517 -7 q 330 74 376 5 q 279 317 281 145 l 136 317 l 136 0 l 34 0 l 34 678 l 136 678 l 136 385 l 279 385 q 335 606 286 538 q 494 683 385 674 q 552 685 515 685 q 610 683 587 685 z "},"я":{"ha":620,"x_min":34,"x_max":498,"o":"m 396 613 l 275 613 q 175 585 203 613 q 148 482 148 557 q 182 377 148 411 q 296 342 218 342 l 396 342 l 396 613 m 498 678 l 498 0 l 396 0 l 396 282 l 316 282 q 200 243 240 282 q 144 42 150 192 q 132 0 142 14 l 34 0 q 44 40 43 18 q 68 207 47 150 q 132 290 87 262 q 200 314 159 308 q 90 357 124 323 q 46 485 46 399 q 95 625 46 582 q 270 678 157 678 l 498 678 z "},"ё":{"ha":614,"x_min":34,"x_max":515,"o":"m 418 827 q 458 808 441 827 q 475 765 475 789 q 458 725 475 741 q 418 709 441 709 q 379 725 395 709 q 363 765 363 741 q 379 808 363 789 q 418 827 396 827 m 172 827 q 212 808 195 827 q 228 765 228 789 q 212 725 228 741 q 172 709 195 709 q 132 725 149 709 q 116 765 116 741 q 132 808 116 789 q 172 827 149 827 m 430 372 q 402 542 427 489 q 287 612 369 612 q 188 570 222 612 q 136 372 141 513 l 430 372 m 136 304 q 179 116 136 163 q 274 65 208 73 q 302 64 288 64 q 389 73 340 64 q 477 101 446 85 l 513 47 q 299 -7 410 -7 q 260 -5 279 -7 q 91 85 142 5 q 34 332 34 158 q 113 606 34 511 q 292 685 177 685 l 304 685 q 482 564 431 680 q 515 369 515 488 q 513 304 515 338 l 136 304 z "},"і":{"ha":244,"x_min":31,"x_max":142,"o":"m 39 678 l 138 678 l 138 0 l 39 0 l 39 678 m 87 783 q 47 800 63 783 q 31 840 31 816 q 47 882 31 863 q 87 902 64 902 q 126 882 109 902 q 142 840 142 863 q 126 800 142 816 q 87 783 110 783 z "},"ї":{"ha":397,"x_min":24,"x_max":295,"o":"m 109 678 l 207 678 l 207 0 l 109 0 l 109 678 m 246 902 q 281 882 265 902 q 295 840 295 863 q 281 800 295 816 q 246 783 266 783 q 211 800 226 783 q 197 840 197 816 q 211 882 197 863 q 246 902 226 902 m 122 840 q 108 800 122 816 q 73 783 93 783 q 38 800 53 783 q 24 840 24 816 q 38 882 24 863 q 73 902 54 902 q 108 882 93 902 q 122 840 122 863 z "},"є":{"ha":619,"x_min":34,"x_max":528,"o":"m 251 684 q 276 685 263 685 q 413 668 346 685 q 495 640 469 654 l 466 585 q 286 619 363 619 q 260 618 273 619 q 169 568 198 612 q 136 368 136 509 l 380 374 l 380 306 l 136 311 q 168 112 136 168 q 260 65 196 73 q 286 64 273 64 q 394 75 334 64 q 491 102 462 89 l 528 41 q 355 -1 456 10 q 267 -7 298 -7 q 247 -6 256 -7 q 77 79 127 4 q 34 338 34 157 q 79 600 34 522 q 251 684 130 677 z "},"Ґ":{"ha":599,"x_min":47,"x_max":538,"o":"m 538 949 l 538 885 l 153 885 l 153 0 l 47 0 l 47 949 l 538 949 m 474 885 l 474 1038 l 538 1038 l 538 885 l 474 885 z "},"ґ":{"ha":496,"x_min":34,"x_max":422,"o":"m 422 678 l 422 614 l 136 614 l 136 0 l 34 0 l 34 678 l 422 678 m 354 614 l 354 764 l 422 764 l 422 614 l 354 614 z "}}}
